<?xml version="1.0" encoding="UTF-8"?>
<svg version="1.1" xmlns="http://www.w3.org/2000/svg" width="208" height="153">
<path d="M0 0 C4.46017161 0.40065948 6.71688954 2.27938954 9.80859375 5.37109375 C11.63673098 7.17904559 11.63673098 7.17904559 15.1875 8.25 C19.24202445 10.239012 20.01100446 11.98997463 21.67578125 16.03515625 C22.45513493 18.06761707 22.45513493 18.06761707 24.5 19.875 C25.87105011 20.05420365 27.24729881 20.19489136 28.625 20.3125 C33.33123595 21.24017151 34.93239702 23.23860625 37.625 27.125 C38.27082031 28.10726563 38.91664063 29.08953125 39.58203125 30.1015625 C42.6747992 34.57379313 46.25396392 38.12632131 51.5 39.875 C52.31404297 38.71871094 52.31404297 38.71871094 53.14453125 37.5390625 C54.21767578 36.03472656 54.21767578 36.03472656 55.3125 34.5 C56.02019531 33.50226562 56.72789062 32.50453125 57.45703125 31.4765625 C59.5 28.875 59.5 28.875 62.5 26.875 C67.42676658 27.00815585 69.85888843 29.82835562 73.5 32.875 C75.48799818 33.57664642 77.48698517 34.24872872 79.5 34.875 C82.35905701 37.13548596 83.0753108 39.20125672 83.9375 42.6875 C84.86672373 46.14600117 85.46679168 47.8334896 87.75 50.6875 C92.43190461 59.21525482 87.72270822 71.9586059 85.1484375 80.875 C81.41917865 92.77868194 75.9640824 104.61798613 67.5 113.875 C66.83613281 114.66648437 66.17226562 115.45796875 65.48828125 116.2734375 C48.88291822 135.65132972 25.74492727 148.54898692 0.1484375 150.71484375 C-24.75000474 152.22050176 -49.4441097 146.04966636 -68.8125 129.875 C-69.63363281 129.1325 -70.45476562 128.39 -71.30078125 127.625 C-73.46283573 125.90457299 -74.80092366 125.27028807 -77.5 124.875 C-77.5928125 124.29492188 -77.685625 123.71484375 -77.78125 123.1171875 C-78.67118992 120.34096187 -79.9626964 119.07772629 -82 117 C-98.42639894 99.01338754 -108.03798566 73.33186401 -107.04296875 48.88671875 C-106.33627578 44.96686061 -105.02210588 42.8439166 -102.33203125 39.96484375 C-99.99545213 37.29944966 -98.43313516 34.39447311 -96.6875 31.3125 C-93.06118947 25.31033085 -89.23738932 21.76269045 -83.5 17.875 C-82.654375 17.05 -81.80875 16.225 -80.9375 15.375 C-78.0678766 13.60907791 -75.94355219 13.28278797 -72.609375 13.859375 C-68.82455044 15.68169794 -66.84121657 19.18638 -64.4453125 22.53125 C-62.55673983 25.20235451 -62.55673983 25.20235451 -58.8125 26.25 C-54.64525885 28.29430698 -54.41370317 29.76873103 -52.75 34 C-52.38390625 35.07507812 -52.0178125 36.15015625 -51.640625 37.2578125 C-51.26421875 38.12148438 -50.8878125 38.98515625 -50.5 39.875 C-49.51 40.205 -48.52 40.535 -47.5 40.875 C-46.7575 40.1325 -46.015 39.39 -45.25 38.625 C-44.3425 37.7175 -43.435 36.81 -42.5 35.875 C-41.901875 35.215 -41.30375 34.555 -40.6875 33.875 C-38.18831785 31.59003347 -35.53876203 29.9812037 -32.65625 28.22265625 C-26.55211963 24.40757477 -22.43422591 20.96670464 -18.5 14.875 C-16.84154343 13.34218408 -15.11236223 11.94001741 -13.34765625 10.53125 C-11.29780779 8.69375371 -9.78705676 6.69036714 -8.125 4.5 C-5.56913696 1.52007 -3.96421193 0.26876013 0 0 Z " fill="#3E381C" transform="translate(112.5,-0.875)"/>
<path d="M0 0 C2.00348966 1.66247014 4.00334402 3.32932867 6 5 C7.98799818 5.70164642 9.98698517 6.37372872 12 7 C14.85905701 9.26048596 15.5753108 11.32625672 16.4375 14.8125 C17.36672373 18.27100117 17.96679168 19.9584896 20.25 22.8125 C24.93190461 31.34025482 20.22270822 44.0836059 17.6484375 53 C13.91917865 64.90368194 8.4640824 76.74298613 0 86 C-0.66386719 86.79148437 -1.32773438 87.58296875 -2.01171875 88.3984375 C-14.84115523 103.36995225 -33.91149411 118.06253133 -54.24829102 119.69165039 C-57.16494002 119.86240631 -60.07888322 119.95555701 -63 120 C-61.68 119.34 -60.36 118.68 -59 118 C-59.98226562 118.10828125 -59.98226562 118.10828125 -60.984375 118.21875 C-74.19927051 119.56263768 -86.06153213 118.76460114 -99 116 C-100.35931641 115.70996094 -100.35931641 115.70996094 -101.74609375 115.4140625 C-113.72662716 112.3027604 -125.27270777 105.48106819 -135 98 C-136.546875 96.8553125 -136.546875 96.8553125 -138.125 95.6875 C-138.74375 95.130625 -139.3625 94.57375 -140 94 C-140 93.34 -140 92.68 -140 92 C-133.94696648 91.75293741 -128.80345358 92.2747978 -123.5625 95.5 C-123.046875 95.995 -122.53125 96.49 -122 97 C-122 97.66 -122 98.32 -122 99 C-121.360625 99.28875 -120.72125 99.5775 -120.0625 99.875 C-118 101 -118 101 -117 103 C-118.65 103 -120.3 103 -122 103 C-122 103.66 -122 104.32 -122 105 C-119.69 105 -117.38 105 -115 105 C-114.67 101.04 -114.34 97.08 -114 93 C-114.66 92.67 -115.32 92.34 -116 92 C-114.68 92 -113.36 92 -112 92 C-112 96.62 -112 101.24 -112 106 C-111.34 106 -110.68 106 -110 106 C-110 103.03 -110 100.06 -110 97 C-108.515 96.505 -108.515 96.505 -107 96 C-107 95.01 -107 94.02 -107 93 C-107.99 92.505 -107.99 92.505 -109 92 C-107.35 92 -105.7 92 -104 92 C-104.185625 91.4225 -104.37125 90.845 -104.5625 90.25 C-105.04607979 87.76301821 -104.62300419 86.41414122 -104 84 C-104.33 83.01 -104.66 82.02 -105 81 C-104.360625 80.87625 -103.72125 80.7525 -103.0625 80.625 C-102.0415625 80.315625 -102.0415625 80.315625 -101 80 C-100.67 79.34 -100.34 78.68 -100 78 C-101.98 78.495 -101.98 78.495 -104 79 C-102.02 76.69 -100.04 74.38 -98 72 C-98.66 72 -99.32 72 -100 72 C-99 70 -99 70 -96.76953125 69.171875 C-93.37298951 67.73469232 -91.35010786 65.79315657 -88.6875 63.25 C-84.32151542 59.1679819 -79.88327762 55.44208107 -75 52 C-71.20680465 53.55932742 -68.88626252 55.94246388 -66.0625 58.875 C-63.51841348 61.50952545 -61.07431879 63.94207051 -58.18359375 66.1953125 C-57.46300781 66.79085937 -56.74242188 67.38640625 -56 68 C-56 68.66 -56 69.32 -56 70 C-55.34 70 -54.68 70 -54 70 C-54 69.01 -54 68.02 -54 67 C-54.66 67 -55.32 67 -56 67 C-57.6875 64.625 -57.6875 64.625 -59 62 C-58.505 61.01 -58.505 61.01 -58 60 C-59.65 60 -61.3 60 -63 60 C-62.67 58.68 -62.34 57.36 -62 56 C-61.34 56 -60.68 56 -60 56 C-60 55.34 -60 54.68 -60 54 C-59.26394531 53.62488281 -58.52789062 53.24976563 -57.76953125 52.86328125 C-50.48820784 49.04467439 -45.63790869 45.65278872 -41.25 38.625 C-37.9893532 33.5613082 -33.87783448 30.43355947 -29 27 C-24.94098051 24.00405704 -21.80680479 20.63105663 -18.55078125 16.8046875 C-17 15 -17 15 -15 13 C-14.62875 11.948125 -14.62875 11.948125 -14.25 10.875 C-11.42920453 4.38717041 -7.71369898 -2.45435877 0 0 Z " fill="#3D381E" transform="translate(180,27)"/>
<path d="M0 0 C3.70822881 0.27468362 5.67584634 2.35920571 8.35546875 4.75390625 C10.18879236 6.27098249 10.18879236 6.27098249 13.625 7.3125 C17.71123635 9.35561817 18.49314833 11.07158666 20.17578125 15.16015625 C20.95513493 17.19261707 20.95513493 17.19261707 23 19 C24.37105011 19.17920365 25.74729881 19.31989136 27.125 19.4375 C31.83123595 20.36517151 33.43239702 22.36360625 36.125 26.25 C36.77082031 27.23226563 37.41664063 28.21453125 38.08203125 29.2265625 C41.1747992 33.69879313 44.75396392 37.25132131 50 39 C50.66 38.67 51.32 38.34 52 38 C50.37688533 41.86411958 47.79877305 44.75885586 45 47.8125 C44.51305664 48.3472998 44.02611328 48.88209961 43.52441406 49.43310547 C40.50405483 52.65579945 37.48593592 55.22414548 33.75 57.625 C29.08919828 60.63864041 26.51180669 64.09398672 23.50390625 68.70703125 C19.59118481 74.67266109 14.37849599 78.05511482 8 81 C7.34 81 6.68 81 6 81 C6 81.66 6 82.32 6 83 C5.34 83 4.68 83 4 83 C3.505 84.98 3.505 84.98 3 87 C4.65 87 6.3 87 8 87 C8.144375 87.598125 8.28875 88.19625 8.4375 88.8125 C8.8872439 90.56150404 9.42892341 92.28677023 10 94 C10.66 94 11.32 94 12 94 C12 94.99 12 95.98 12 97 C10 97 10 97 7.76953125 94.89453125 C6.84450628 93.93145898 5.92147437 92.96647006 5 92 C3.96488607 90.95959982 2.92704232 89.92190967 1.88671875 88.88671875 C-1.07552083 85.92447917 -4.03776042 82.96223958 -7 80 C-11.13211732 81.37981893 -13.6669732 83.26200362 -16.8125 86.25 C-21.01484875 90.14993085 -25.33278629 93.675588 -30 97 C-30.66 96.67 -31.32 96.34 -32 96 C-31.154375 95.13375 -30.30875 94.2675 -29.4375 93.375 C-27.17846588 90.70984739 -26.98160412 90.33112587 -27.1875 86.625 C-27.455625 85.75875 -27.72375 84.8925 -28 84 C-26.68 84 -25.36 84 -24 84 C-24 81.69 -24 79.38 -24 77 C-23.34 77 -22.68 77 -22 77 C-22 75.68 -22 74.36 -22 73 C-23.03125 73.2475 -24.0625 73.495 -25.125 73.75 C-29.92403346 74.05961506 -31.40792309 73.10224824 -35 70 C-37.57702109 66.56397188 -38 65.39927132 -38 61 C-36.68 61 -35.36 61 -34 61 C-35.98 60.34 -37.96 59.68 -40 59 C-39.67 58.01 -39.34 57.02 -39 56 C-38.175 55.690625 -37.35 55.38125 -36.5 55.0625 C-35.675 54.711875 -34.85 54.36125 -34 54 C-33.11306697 51.95894361 -33.11306697 51.95894361 -33 50 C-31.02 50.66 -29.04 51.32 -27 52 C-27.020625 52.86625 -27.04125 53.7325 -27.0625 54.625 C-27.00261044 57.85903648 -26.60419067 60.82799897 -26 64 C-24.515 63.505 -24.515 63.505 -23 63 C-22.979375 63.598125 -22.95875 64.19625 -22.9375 64.8125 C-22.09543384 67.43314602 -22.09543384 67.43314602 -18.4375 68.75 C-17.303125 69.1625 -16.16875 69.575 -15 70 C-15 68.68 -15 67.36 -15 66 C-13.35 66.33 -11.7 66.66 -10 67 C-10 64.36 -10 61.72 -10 59 C-8.02 58.505 -8.02 58.505 -6 58 C-5.87625 59.19625 -5.7525 60.3925 -5.625 61.625 C-5.29194104 64.3618758 -4.81924665 66.54226005 -3.9375 69.1875 C-3.00399518 71.98801447 -2.82791 74.07447 -3 77 C-2.01 77 -1.02 77 0 77 C-0.32960216 71.98464948 -0.32960216 71.98464948 -3 68 C-2.505 66.515 -2.505 66.515 -2 65 C-0.76302083 66.52994792 0.47395833 68.05989583 1.7109375 69.58984375 C2.9666391 71.13266437 2.9666391 71.13266437 5 72 C3.87895467 70.68412059 2.75303035 69.37239647 1.625 68.0625 C0.99851563 67.33160156 0.37203125 66.60070312 -0.2734375 65.84765625 C-1.87747714 63.91619094 -1.87747714 63.91619094 -4 63 C-6.6056338 48.4084507 -6.6056338 48.4084507 -3 43 C-2.01 42.67 -1.02 42.34 0 42 C-1.93109581 41.95710245 -1.93109581 41.95710245 -4 43 C-6.50213316 47.63357992 -7.46195502 51.72715915 -8 57 C-11.13349732 58.04449911 -11.98968256 57.93423645 -15 57 C-13.125 53.125 -13.125 53.125 -12 52 C-11.83333333 48.5 -11.83333333 48.5 -12 45 C-12.495 44.505 -12.495 44.505 -13 44 C-13.45555889 39.33052137 -12.39466295 36.12585398 -10.66796875 31.90234375 C-9.83802798 29.53871126 -9.7671887 27.48332053 -10 25 C-10.33 25.66 -10.66 26.32 -11 27 C-11.66 27 -12.32 27 -13 27 C-12.690625 27.8353125 -12.690625 27.8353125 -12.375 28.6875 C-11.89304789 31.659538 -12.73434972 33.31979941 -14 36 C-14.66 36 -15.32 36 -16 36 C-15.93989582 34.06164034 -15.85108283 32.12415509 -15.75 30.1875 C-15.70359375 29.10855469 -15.6571875 28.02960937 -15.609375 26.91796875 C-15 24 -15 24 -13.078125 22.11328125 C-11 21 -11 21 -9 21 C-8.67 19.35 -8.34 17.7 -8 16 C-6.68 16.33 -5.36 16.66 -4 17 C-4.13921875 18.03447266 -4.13921875 18.03447266 -4.28125 19.08984375 C-4.62653258 23.58468306 -4.80725725 26.75962528 -2.2890625 30.62890625 C-0.2666464 32.8448026 1.84086454 34.91890558 4 37 C6.19696964 40.29545446 6.91799194 43.21297178 8 47 C10.22323773 50.33485659 11.5791441 51.00549143 15.125 52.6875 C16.03507812 53.12449219 16.94515625 53.56148437 17.8828125 54.01171875 C18.58148438 54.33785156 19.28015625 54.66398437 20 55 C18.45423042 49.02031241 16.53431873 44.86378789 12.20703125 40.41015625 C11 39 11 39 11 37 C9.68 37.66 8.36 38.32 7 39 C1.11816193 32.92560175 1.11816193 32.92560175 0.625 29.0625 C0.810625 28.0415625 0.810625 28.0415625 1 27 C3 27 3 27 4.625 28.5 C5.07875 28.995 5.5325 29.49 6 30 C5.505 29.21625 5.01 28.4325 4.5 27.625 C3 25 3 25 3 23 C2.01 23.33 1.02 23.66 0 24 C-2 22 -2 22 -2.1953125 19.8359375 C-2.17210937 19.02382813 -2.14890625 18.21171875 -2.125 17.375 C-2.10695312 16.55773437 -2.08890625 15.74046875 -2.0703125 14.8984375 C-2.04710937 14.27195312 -2.02390625 13.64546875 -2 13 C-1.34 13 -0.68 13 0 13 C0 13.66 0 14.32 0 15 C0.66 15 1.32 15 2 15 C1.80083984 14.11248047 1.80083984 14.11248047 1.59765625 13.20703125 C1.23460167 11.58256077 0.87400476 9.95753945 0.515625 8.33203125 C0.12226508 6.55297161 -0.28050244 4.77598936 -0.6875 3 C-0.8421875 2.01 -0.8421875 2.01 -1 1 C-0.67 0.67 -0.34 0.34 0 0 Z " fill="#42553A" transform="translate(114,0)"/>
<path d="M0 0 C1.46670113 5.22512279 2.22577402 9.5814234 2 15 C1.34 15 0.68 15 0 15 C0 14.34 0 13.68 0 13 C-0.66 13 -1.32 13 -2 13 C-1.505 17.455 -1.505 17.455 -1 22 C0.32 22.33 1.64 22.66 3 23 C6 27.17857143 6 27.17857143 6 30 C5.01 29.67 4.02 29.34 3 29 C3 28.34 3 27.68 3 27 C2.34 27 1.68 27 1 27 C1.85955333 31.06334301 2.50343656 33.49070417 5.4375 36.5 C6.283125 36.995 7.12875 37.49 8 38 C8.99 37.67 9.98 37.34 11 37 C15.18650464 42.0582152 18.98140042 46.69187631 21 53 C20.67 53.99 20.34 54.98 20 56 C18.22317752 55.09499704 16.45373409 54.1754975 14.6875 53.25 C13.70136719 52.73953125 12.71523437 52.2290625 11.69921875 51.703125 C9.00339705 50.00214344 7.61854165 48.71531658 6 46 C5.6596875 44.453125 5.6596875 44.453125 5.3125 42.875 C3.8755023 37.07658821 -0.8530567 32.1469433 -5 28 C-5.07226502 26.14712498 -5.0838122 24.29166122 -5.0625 22.4375 C-5.05347656 21.42558594 -5.04445312 20.41367187 -5.03515625 19.37109375 C-5.02355469 18.58863281 -5.01195312 17.80617188 -5 17 C-5.99 16.67 -6.98 16.34 -8 16 C-8.0825 16.763125 -8.165 17.52625 -8.25 18.3125 C-9.15269355 21.54715191 -10.13593461 22.35099265 -13 24 C-13.66 24 -14.32 24 -15 24 C-14.98839844 24.61488281 -14.97679687 25.22976562 -14.96484375 25.86328125 C-14.95582031 26.67152344 -14.94679687 27.47976562 -14.9375 28.3125 C-14.92589844 29.11300781 -14.91429687 29.91351562 -14.90234375 30.73828125 C-15 33 -15 33 -16 36 C-15.34 36 -14.68 36 -14 36 C-13.67 33.03 -13.34 30.06 -13 27 C-12.34 27 -11.68 27 -11 27 C-10.505 25.515 -10.505 25.515 -10 24 C-9.67 24 -9.34 24 -9 24 C-9.42014339 29.07488994 -10.07965851 33.26315766 -12 38 C-12.25086724 41.16732421 -12.25086724 41.16732421 -12 44 C-11.67 44.33 -11.34 44.66 -11 45 C-10.58970784 49.26703842 -10.55086104 51.34032715 -13 54.9375 C-13.66 55.618125 -14.32 56.29875 -15 57 C-12.69 57 -10.38 57 -8 57 C-8.061875 55.989375 -8.12375 54.97875 -8.1875 53.9375 C-7.94137867 48.76895214 -6.76095081 44.76095081 -3 41 C-0.875 41.375 -0.875 41.375 1 42 C0.0409375 42.433125 0.0409375 42.433125 -0.9375 42.875 C-3.15206079 43.82823451 -3.15206079 43.82823451 -4 46 C-4.07194869 48.88370333 -4.09291708 51.74239664 -4.0625 54.625 C-4.05798828 55.42679688 -4.05347656 56.22859375 -4.04882812 57.0546875 C-4.03703168 59.03649006 -4.01909605 61.01825433 -4 63 C-3.36191406 63.28746094 -2.72382812 63.57492188 -2.06640625 63.87109375 C0.44966495 65.24565817 0.7811706 66.48108591 2 69 C2.99 69.33 3.98 69.66 5 70 C5 70.66 5 71.32 5 72 C1.63279613 70.60667426 0.0140476 69.0210714 -2 66 C-1.505 66.7734375 -1.505 66.7734375 -1 67.5625 C0.32010877 70.78026512 0.13242105 73.5570528 0 77 C-0.99 77 -1.98 77 -3 77 C-3.13277344 76.28972656 -3.26554687 75.57945313 -3.40234375 74.84765625 C-3.57894531 73.92855469 -3.75554687 73.00945312 -3.9375 72.0625 C-4.11152344 71.14597656 -4.28554687 70.22945313 -4.46484375 69.28515625 C-4.77714988 67.04710156 -4.77714988 67.04710156 -6 66 C-6.14115161 63.32941149 -6.04247107 60.67567762 -6 58 C-7.98 58.495 -7.98 58.495 -10 59 C-10 61.64 -10 64.28 -10 67 C-11.65 66.67 -13.3 66.34 -15 66 C-15 67.32 -15 68.64 -15 70 C-17.92393881 69.37344168 -20.44829129 68.5838192 -23 67 C-23.33 66.01 -23.66 65.02 -24 64 C-24.66 64 -25.32 64 -26 64 C-27.80619523 59.53763531 -28.11658501 56.68965706 -27 52 C-28.98 51.34 -30.96 50.68 -33 50 C-33.061875 50.78375 -33.12375 51.5675 -33.1875 52.375 C-33.455625 53.24125 -33.72375 54.1075 -34 55 C-36.5 56.1875 -36.5 56.1875 -39 57 C-39.33 57.66 -39.66 58.32 -40 59 C-38.576875 59.185625 -38.576875 59.185625 -37.125 59.375 C-34 60 -34 60 -32 62 C-33.98 61.67 -35.96 61.34 -38 61 C-36.23089855 66.94985475 -36.23089855 66.94985475 -32.1875 71.5 C-28.79576326 73.0961114 -26.69744349 73.35213747 -23 73 C-23 73.99 -23 74.98 -23 76 C-23.66 76 -24.32 76 -25 76 C-25 78.31 -25 80.62 -25 83 C-28.53508103 82.70540991 -29.76203444 82.25118587 -32.25 79.625 C-34 77 -34 77 -35 74 C-35.33 74.99 -35.66 75.98 -36 77 C-41.48927264 76.86276818 -44.38104126 74.56747568 -48.23046875 70.9609375 C-51.820125 66.98299614 -52.92956773 63.47907764 -53.1875 58.0625 C-53.125625 57.051875 -53.06375 56.04125 -53 55 C-52.67 55.66 -52.34 56.32 -52 57 C-51.34 57 -50.68 57 -50 57 C-50.33 56.195625 -50.66 55.39125 -51 54.5625 C-52.20717135 50.26195205 -52.17721353 46.43033819 -52 42 C-51.38382813 41.91105469 -50.76765625 41.82210937 -50.1328125 41.73046875 C-47.89998237 41.20146423 -47.89998237 41.20146423 -46.8671875 39.36328125 C-46.53976563 38.68652344 -46.21234375 38.00976562 -45.875 37.3125 C-43.22957766 32.71998109 -39.93240364 30.8121063 -35.36328125 28.30078125 C-30.51425986 25.63181576 -26.83785757 21.93380401 -23 18 C-22.24589844 17.26265625 -21.49179688 16.5253125 -20.71484375 15.765625 C-18.75562681 13.76976083 -16.91659619 11.78302221 -15.09765625 9.66796875 C-14.59943359 9.09755859 -14.10121094 8.52714844 -13.58789062 7.93945312 C-12.56292286 6.76224943 -11.54998818 5.57446973 -10.54882812 4.37695312 C-7.18775496 0.5821931 -5.33872934 -0.78768138 0 0 Z " fill="#31341F" transform="translate(114,0)"/>
<path d="M0 0 C2.28864849 3.89070243 2.63252647 7.57231474 2 12 C0 13.66666667 -2 15.33333333 -4 17 C-4.41576711 20.5043228 -4.58939347 22.82121306 -3 26 C-2.77141886 28.0374763 -2.58975722 30.08040303 -2.4375 32.125 C-2.35371094 33.22070312 -2.26992187 34.31640625 -2.18359375 35.4453125 C-2.12300781 36.28835937 -2.06242187 37.13140625 -2 38 C-2.99 38.495 -2.99 38.495 -4 39 C-4.93022926 42.34244606 -4.93022926 42.34244606 -5 46 C-3.6083124 48.13344768 -3.6083124 48.13344768 -2 50 C-1.8125 52.75 -1.8125 52.75 -2 55 C-2.99 55 -3.98 55 -5 55 C-7.1875 52.5 -7.1875 52.5 -9 50 C-8.34 50 -7.68 50 -7 50 C-7.33 49.34 -7.66 48.68 -8 48 C-8.40454244 42.74094829 -7.66166853 39.54701708 -5 35 C-5.99 34.67 -6.98 34.34 -8 34 C-8 30.7 -8 27.4 -8 24 C-8.99 24.495 -8.99 24.495 -10 25 C-9.97679687 25.66386719 -9.95359375 26.32773437 -9.9296875 27.01171875 C-9.82966745 31.90555699 -9.93885562 35.49124666 -12 40 C-12.35585134 43.64747625 -11.86573518 45.85157189 -10 49 C-11.98 48.34 -13.96 47.68 -16 47 C-16.495 47.99 -16.495 47.99 -17 49 C-19.71224618 47.38731308 -22.37352812 45.75098126 -25 44 C-25 43.34 -25 42.68 -25 42 C-25.66 42 -26.32 42 -27 42 C-26.690625 42.70125 -26.38125 43.4025 -26.0625 44.125 C-25 47 -25 47 -24.5625 50.125 C-23.96719658 53.16766193 -23.3927955 54.12737744 -21 56 C-21.495 54.02 -21.495 54.02 -22 52 C-19.9754262 53.93254772 -18.57894208 55.63158688 -17 58 C-17.03143293 60.73990408 -17.55478337 63.28417854 -18 66 C-20.49361571 64.79618552 -22.68143083 63.54571278 -25 62 C-25.99 62.495 -25.99 62.495 -27 63 C-27 62.34 -27 61.68 -27 61 C-29.475 61.495 -29.475 61.495 -32 62 C-31.34 60.35 -30.68 58.7 -30 57 C-30.66 57 -31.32 57 -32 57 C-31.67 54.69 -31.34 52.38 -31 50 C-32.485 50.495 -32.485 50.495 -34 51 C-33.67 49.35 -33.34 47.7 -33 46 C-33.66 46 -34.32 46 -35 46 C-35 44.35 -35 42.7 -35 41 C-35.99 41.495 -35.99 41.495 -37 42 C-37.74482287 44.67259973 -38.40322078 47.29694119 -39 50 C-39.32953642 51.33427682 -39.66173853 52.66790839 -40 54 C-40.66 54 -41.32 54 -42 54 C-42 54.928125 -42 55.85625 -42 56.8125 C-42 58.875 -42 60.9375 -42 63 C-42.66 62.67 -43.32 62.34 -44 62 C-42.68 63.65 -41.36 65.3 -40 67 C-40.66 67 -41.32 67 -42 67 C-42.66 68.32 -43.32 69.64 -44 71 C-44.66 71 -45.32 71 -46 71 C-45.34 72.32 -44.68 73.64 -44 75 C-44.99 75.495 -44.99 75.495 -46 76 C-45.34 77.32 -44.68 78.64 -44 80 C-44.99 80 -45.98 80 -47 80 C-47 80.66 -47 81.32 -47 82 C-45.2984375 82.185625 -45.2984375 82.185625 -43.5625 82.375 C-42.386875 82.58125 -41.21125 82.7875 -40 83 C-39.505 83.99 -39.505 83.99 -39 85 C-40.8125 86.5625 -40.8125 86.5625 -43 88 C-44.485 87.505 -44.485 87.505 -46 87 C-48.89932357 89.39509338 -49.50168276 91.31245243 -50 95 C-50.33 95 -50.66 95 -51 95 C-51 91.04 -51 87.08 -51 83 C-50.34 83 -49.68 83 -49 83 C-49 82.34 -49 81.68 -49 81 C-50.65 80.34 -52.3 79.68 -54 79 C-54.04898438 78.28972656 -54.09796875 77.57945313 -54.1484375 76.84765625 C-54.22320312 75.92855469 -54.29796875 75.00945312 -54.375 74.0625 C-54.47941406 72.68771484 -54.47941406 72.68771484 -54.5859375 71.28515625 C-54.72257812 70.53105469 -54.85921875 69.77695313 -55 69 C-55.66 68.67 -56.32 68.34 -57 68 C-56.67 66.68 -56.34 65.36 -56 64 C-55.34 65.32 -54.68 66.64 -54 68 C-53.34 68 -52.68 68 -52 68 C-52 67.01 -52 66.02 -52 65 C-52.66 65 -53.32 65 -54 65 C-55.6875 62.625 -55.6875 62.625 -57 60 C-56.67 59.34 -56.34 58.68 -56 58 C-57.65 58 -59.3 58 -61 58 C-60.67 56.68 -60.34 55.36 -60 54 C-59.34 54 -58.68 54 -58 54 C-58 53.34 -58 52.68 -58 52 C-57.26394531 51.62488281 -56.52789062 51.24976563 -55.76953125 50.86328125 C-48.48820784 47.04467439 -43.63790869 43.65278872 -39.25 36.625 C-35.9893532 31.5613082 -31.87783448 28.43355947 -27 25 C-22.94098051 22.00405704 -19.80680479 18.63105663 -16.55078125 14.8046875 C-15 13 -15 13 -13 11 C-12.566875 9.88625 -12.566875 9.88625 -12.125 8.75 C-10.78678186 5.47880011 -9.11893638 2.82524851 -7 0 C-3.87822605 -1.04059132 -2.92916561 -1.32284898 0 0 Z " fill="#2C2D17" transform="translate(178,29)"/>
<path d="M0 0 C4.43751914 0.43840551 7.01397367 3.49370831 10.0625 6.4375 C14.31067232 10.4809307 14.31067232 10.4809307 19 14 C19.29296875 16.3828125 19.29296875 16.3828125 19.1875 19.125 C19.14689453 20.49011719 19.14689453 20.49011719 19.10546875 21.8828125 C19.07066406 22.58148438 19.03585938 23.28015625 19 24 C21.475 24.99 21.475 24.99 24 26 C24 26.66 24 27.32 24 28 C23.34 28 22.68 28 22 28 C22 31.63 22 35.26 22 39 C16.06 39 10.12 39 4 39 C4 36.69 4 34.38 4 32 C2.02 32 0.04 32 -2 32 C-2 34.31 -2 36.62 -2 39 C-3.65 39 -5.3 39 -7 39 C-7 35.7 -7 32.4 -7 29 C-9.31 29 -11.62 29 -14 29 C-14 29.66 -14 30.32 -14 31 C-15.65 31.33 -17.3 31.66 -19 32 C-19 33.98 -19 35.96 -19 38 C-18.01 38.33 -17.02 38.66 -16 39 C-18.64 39 -21.28 39 -24 39 C-24 35.37 -24 31.74 -24 28 C-24.66 28 -25.32 28 -26 28 C-26 27.34 -26 26.68 -26 26 C-23.19636464 23.91357369 -20.56781024 22.22448312 -17.3125 20.9375 C-14.92733682 20.1611523 -14.92733682 20.1611523 -13.4375 18.3125 C-12.963125 17.879375 -12.48875 17.44625 -12 17 C-9.8125 17.3125 -9.8125 17.3125 -8 18 C-8 17.01 -8 16.02 -8 15 C-8.66 15 -9.32 15 -10 15 C-9.875 13.1875 -9.875 13.1875 -9 11 C-5.58893688 8.69951557 -3.75454424 7.93013479 0.375 8.3125 C1.24125 8.539375 2.1075 8.76625 3 9 C2.65555119 6.52733235 2.65555119 6.52733235 2 4 C1.34 3.67 0.68 3.34 0 3 C0 2.01 0 1.02 0 0 Z " fill="#836439" transform="translate(105,84)"/>
<path d="M0 0 C3.19862473 4.05362704 3.32944501 7.24979468 3.1875 12.3125 C3.16042969 13.56675781 3.13335937 14.82101563 3.10546875 16.11328125 C3.07066406 17.06589844 3.03585938 18.01851562 3 19 C2.34 18.67 1.68 18.34 1 18 C0.60689586 15.67711188 0.49250305 13.38154824 0.34375 11.03125 C0.2303125 10.3609375 0.116875 9.690625 0 9 C-0.66 8.67 -1.32 8.34 -2 8 C-2 8.66 -2 9.32 -2 10 C-2.99 10.33 -3.98 10.66 -5 11 C-5.33 12.65 -5.66 14.3 -6 16 C-5.01 16.33 -4.02 16.66 -3 17 C-2.34 20.3 -1.68 23.6 -1 27 C-2.32 26.34 -3.64 25.68 -5 25 C-4.92065521 27.69772283 -4.48118655 29.46565913 -2.65625 31.4921875 C1.0381601 34.73319273 5.00493152 37.31208163 9.20703125 39.83984375 C11.45760637 41.29609824 13.21478478 43.00879841 15 45 C15.66 45.66 16.32 46.32 17 47 C13.62537285 46.45276317 11.91765 45.9451 9 44 C6.94290404 43.75944532 6.94290404 43.75944532 4.8125 43.875 C3.554375 43.91625 2.29625 43.9575 1 44 C1.14308594 44.99580078 1.14308594 44.99580078 1.2890625 46.01171875 C2.39015817 54.78207381 2.39015817 54.78207381 0 59 C-0.66 59 -1.32 59 -2 59 C-6.89795918 54.10204082 -6.89795918 54.10204082 -7.3125 49.625 C-7.209375 48.75875 -7.10625 47.8925 -7 47 C-6.34 47 -5.68 47 -5 47 C-4.4254048 43.26513121 -4 39.78706732 -4 36 C-3.34 36 -2.68 36 -2 36 C-2 35.34 -2 34.68 -2 34 C-2.66 34 -3.32 34 -4 34 C-5.2890625 32.46875 -5.2890625 32.46875 -6.625 30.5 C-7.07101563 29.8503125 -7.51703125 29.200625 -7.9765625 28.53125 C-8.31429688 28.0259375 -8.65203125 27.520625 -9 27 C-9.66 27.33 -10.32 27.66 -11 28 C-10.33484375 28.53109375 -9.6696875 29.0621875 -8.984375 29.609375 C-7 32 -7 32 -6.828125 35.015625 C-6.96734375 36.08296875 -7.1065625 37.1503125 -7.25 38.25 C-7.37890625 39.32765625 -7.5078125 40.4053125 -7.640625 41.515625 C-7.75921875 42.33546875 -7.8778125 43.1553125 -8 44 C-8.33 42.68 -8.66 41.36 -9 40 C-9.99 40 -10.98 40 -12 40 C-12 40.66 -12 41.32 -12 42 C-12.99 42 -13.98 42 -15 42 C-15 43.32 -15 44.64 -15 46 C-19.00410788 44.66529737 -19.70666202 42.44000697 -22 39 C-22.99 38.67 -23.98 38.34 -25 38 C-26.125 34.8125 -26.125 34.8125 -27 31 C-27.25910156 30.06671875 -27.51820312 29.1334375 -27.78515625 28.171875 C-28.07611165 23.87631533 -26.65594545 22.0010517 -24.3125 18.4375 C-23.60738281 17.34308594 -22.90226562 16.24867187 -22.17578125 15.12109375 C-18.53454149 9.89784318 -15.46423983 6.34545295 -10 3 C-9.154375 2.4225 -8.30875 1.845 -7.4375 1.25 C-4.61346378 -0.1982237 -3.11820991 -0.65646524 0 0 Z " fill="#2F311C" transform="translate(38,15)"/>
<path d="M0 0 C3.70822881 0.27468362 5.67584634 2.35920571 8.35546875 4.75390625 C10.18879236 6.27098249 10.18879236 6.27098249 13.625 7.3125 C17.71123635 9.35561817 18.49314833 11.07158666 20.17578125 15.16015625 C20.95513493 17.19261707 20.95513493 17.19261707 23 19 C25.32275177 19.40047444 27.65739357 19.7397104 30 20 C30 20.33 30 20.66 30 21 C28.35 21 26.7 21 25 21 C24.77026859 25.70949382 25.34950283 29.56971812 27 34 C28.485 34.495 28.485 34.495 30 35 C28.515 35.495 28.515 35.495 27 36 C22.58935631 33.39885116 21.06440578 30.34948104 19.0390625 25.87890625 C18.01211984 23.73418802 18.01211984 23.73418802 15.375 21.9375 C12.17080601 19.32355227 11.90488646 16.96757909 11 13 C10.35800351 11.32367583 9.70105843 9.65249487 9 8 C8.34 8 7.68 8 7 8 C7.99 9.485 7.99 9.485 9 11 C9.46825355 12.46972068 9.90366809 13.95015446 10.3125 15.4375 C11.6828606 19.72852816 13.28762924 21.37417678 17 24 C18.39355764 25.95851344 19.74282547 27.95127113 21 30 C20.67 30.66 20.34 31.32 20 32 C18.29115995 30.37660195 16.62553283 28.70680947 15 27 C15 26.34 15 25.68 15 25 C14.34 25 13.68 25 13 25 C13.66 26.65 14.32 28.3 15 30 C14.01 30 13.02 30 12 30 C12.66 32.97 13.32 35.94 14 39 C13.236875 38.835 12.47375 38.67 11.6875 38.5 C8.96403764 37.90854604 8.96403764 37.90854604 6 38 C1.12195122 33.12195122 1.12195122 33.12195122 0.6875 29.125 C0.790625 28.42375 0.89375 27.7225 1 27 C3 27 3 27 4.625 28.5 C5.07875 28.995 5.5325 29.49 6 30 C5.2575 28.824375 5.2575 28.824375 4.5 27.625 C3 25 3 25 3 23 C2.01 23.33 1.02 23.66 0 24 C-2 22 -2 22 -2.1953125 19.8359375 C-2.17210938 19.02382813 -2.14890625 18.21171875 -2.125 17.375 C-2.10695313 16.55773437 -2.08890625 15.74046875 -2.0703125 14.8984375 C-2.04710938 14.27195312 -2.02390625 13.64546875 -2 13 C-1.34 13 -0.68 13 0 13 C0 13.66 0 14.32 0 15 C0.66 15 1.32 15 2 15 C1.86722656 14.40832031 1.73445313 13.81664062 1.59765625 13.20703125 C1.23460167 11.58256077 0.87400476 9.95753945 0.515625 8.33203125 C0.12226508 6.55297161 -0.28050244 4.77598936 -0.6875 3 C-0.8421875 2.01 -0.8421875 2.01 -1 1 C-0.67 0.67 -0.34 0.34 0 0 Z " fill="#486247" transform="translate(114,0)"/>
<path d="M0 0 C2.83374881 3.20336822 3.5205537 5.78087253 4 10 C6.51083114 8.74458443 6.87125446 7.49936512 8 5 C10.53936964 8.25356734 11.92103132 10.43734815 12.5 14.5625 C11.92473669 18.51743527 10.74825354 20.16586354 8 23 C10.31 23 12.62 23 15 23 C14.938125 21.989375 14.87625 20.97875 14.8125 19.9375 C15.05862133 14.76895214 16.23904919 10.76095081 20 7 C22.125 7.375 22.125 7.375 24 8 C23.360625 8.28875 22.72125 8.5775 22.0625 8.875 C19.84793921 9.82823451 19.84793921 9.82823451 19 12 C18.92805131 14.88370333 18.90708292 17.74239664 18.9375 20.625 C18.94201172 21.42679688 18.94652344 22.22859375 18.95117188 23.0546875 C18.96296832 25.03649006 18.98090395 27.01825433 19 29 C19.63808594 29.28746094 20.27617188 29.57492188 20.93359375 29.87109375 C23.44966495 31.24565817 23.7811706 32.48108591 25 35 C26.485 35.495 26.485 35.495 28 36 C28 36.66 28 37.32 28 38 C24.63279613 36.60667426 23.0140476 35.0210714 21 32 C21.33 32.515625 21.66 33.03125 22 33.5625 C23.32010877 36.78026512 23.13242105 39.5570528 23 43 C22.01 43 21.02 43 20 43 C19.80083984 41.93458984 19.80083984 41.93458984 19.59765625 40.84765625 C19.33275391 39.46900391 19.33275391 39.46900391 19.0625 38.0625 C18.88847656 37.14597656 18.71445313 36.22945312 18.53515625 35.28515625 C18.22285012 33.04710156 18.22285012 33.04710156 17 32 C16.85884839 29.32941149 16.95752893 26.67567762 17 24 C15.68 24.33 14.36 24.66 13 25 C13 27.64 13 30.28 13 33 C11.35 32.67 9.7 32.34 8 32 C8 33.32 8 34.64 8 36 C5.07606119 35.37344168 2.55170871 34.5838192 0 33 C-0.495 31.515 -0.495 31.515 -1 30 C-1.66 30 -2.32 30 -3 30 C-5.1951074 24.44766951 -4.84284324 21.52852971 -3 16 C-3.08521741 14.10047654 -3.23729084 12.20336427 -3.4375 10.3125 C-3.53933594 9.31863281 -3.64117187 8.32476562 -3.74609375 7.30078125 C-3.82988281 6.54152344 -3.91367188 5.78226563 -4 5 C-3.01 5 -2.02 5 -1 5 C-1.33 3.68 -1.66 2.36 -2 1 C-1.34 0.67 -0.68 0.34 0 0 Z " fill="#282B15" transform="translate(91,34)"/>
<path d="M0 0 C0.66 0 1.32 0 2 0 C2 1.65 2 3.3 2 5 C2.66 5 3.32 5 4 5 C4 6.32 4 7.64 4 9 C4.66 9 5.32 9 6 9 C5.67 11.31 5.34 13.62 5 16 C5.66 16 6.32 16 7 16 C6.67 17.32 6.34 18.64 6 20 C6.99 20 7.98 20 9 20 C9 22.31 9 24.62 9 27 C8.34 27.33 7.68 27.66 7 28 C7.2475 28.86625 7.2475 28.86625 7.5 29.75 C8 32 8 32 8 36 C7.01 36.495 7.01 36.495 6 37 C6.66 37.33 7.32 37.66 8 38 C6.84826645 40.46800047 5.95216435 42.04783565 4 44 C4.66 44.33 5.32 44.66 6 45 C6 45.66 6 46.32 6 47 C3.36 47.33 0.72 47.66 -2 48 C-2.99 46.68 -3.98 45.36 -5 44 C-4.01 43.505 -4.01 43.505 -3 43 C-5.31 42.34 -7.62 41.68 -10 41 C-10 40.34 -10 39.68 -10 39 C-9.01 38.505 -9.01 38.505 -8 38 C-8.66 36.68 -9.32 35.36 -10 34 C-9.01 33.505 -9.01 33.505 -8 33 C-8 31.68 -8 30.36 -8 29 C-7.34 28.67 -6.68 28.34 -6 28 C-4.66695302 25.10813214 -4.66695302 25.10813214 -5.9375 22.8125 C-6.288125 22.214375 -6.63875 21.61625 -7 21 C-6.34 20.67 -5.68 20.34 -5 20 C-5.185625 19.236875 -5.37125 18.47375 -5.5625 17.6875 C-6 15 -6 15 -5 12 C-4.34 12.33 -3.68 12.66 -3 13 C-3.309375 11.8553125 -3.309375 11.8553125 -3.625 10.6875 C-4 8 -4 8 -2 5 C-1.30686092 3.34416775 -0.63525576 1.67889021 0 0 Z " fill="#DFBD82" transform="translate(141,70)"/>
<path d="M0 0 C0.99 0.33 1.98 0.66 3 1 C3.82957945 6.39226645 4 11.56103467 4 17 C4.66 17 5.32 17 6 17 C4.125 20.875 4.125 20.875 3 22 C3.66 22 4.32 22 5 22 C4.67 22.99 4.34 23.98 4 25 C2.68 25 1.36 25 0 25 C0 25.66 0 26.32 0 27 C0.99 27.33 1.98 27.66 3 28 C2.34 28 1.68 28 1 28 C1 30.31 1 32.62 1 35 C-2.465 35.495 -2.465 35.495 -6 36 C-11.74031891 26.77448747 -11.74031891 26.77448747 -11 21 C-11.66 21 -12.32 21 -13 21 C-13 20.01 -13 19.02 -13 18 C-12.34 18 -11.68 18 -11 18 C-11.495 17.38125 -11.99 16.7625 -12.5 16.125 C-14 14 -14 14 -14 12 C-12.35 11.67 -10.7 11.34 -9 11 C-9.66 11 -10.32 11 -11 11 C-10.34 7.7 -9.68 4.4 -9 1 C-8.01 1 -7.02 1 -6 1 C-5.67 3.97 -5.34 6.94 -5 10 C-4.34 10 -3.68 10 -3 10 C-3 7.69 -3 5.38 -3 3 C-2.34 3 -1.68 3 -1 3 C-0.67 2.01 -0.34 1.02 0 0 Z " fill="#F0C98A" transform="translate(75,83)"/>
<path d="M0 0 C0.66 0 1.32 0 2 0 C2.66 0.66 3.32 1.32 4 2 C4.7734375 2.44988281 5.546875 2.89976563 6.34375 3.36328125 C9.10402787 5.06409953 11.17339404 6.93658841 13.5 9.1875 C27.3872071 21.82526811 44.5807173 29.25085333 63 32 C64.18335937 32.185625 65.36671875 32.37125 66.5859375 32.5625 C76.34294669 33.81282612 86.23963798 32.8085507 96 32 C95.01 32.66 94.02 33.32 93 34 C95.64 34 98.28 34 101 34 C101 34.33 101 34.66 101 35 C74.13213614 41.50028964 47.59422885 37.23613638 23.9140625 23.22460938 C20.04491252 20.74914301 16.60496445 17.82960679 13.19921875 14.75 C11.03716427 13.02957299 9.69907634 12.39528807 7 12 C6.89816406 11.41605469 6.79632813 10.83210938 6.69140625 10.23046875 C5.88545337 7.63047388 4.76850158 6.30798872 2.9375 4.3125 C0 1.08470588 0 1.08470588 0 0 Z " fill="#674F38" transform="translate(28,112)"/>
<path d="M0 0 C3.87321093 1.57630677 6.24735163 4.07747669 9.125 7.0625 C12.24105765 10.46453483 12.24105765 10.46453483 16 13 C15.67 14.32 15.34 15.64 15 17 C13.75283203 15.82630859 13.75283203 15.82630859 12.48046875 14.62890625 C11.38304559 13.60652057 10.28537648 12.58439887 9.1875 11.5625 C8.64029297 11.04623047 8.09308594 10.52996094 7.52929688 9.99804688 C5.03940058 7.68923395 3.25924458 6.08641486 0 5 C0 5.99 0 6.98 0 8 C0.99 8.33 1.98 8.66 3 9 C3 10.65 3 12.3 3 14 C1.88625 13.95875 0.7725 13.9175 -0.375 13.875 C-4.04366025 13.58878141 -4.04366025 13.58878141 -6 16 C-6.99 16 -7.98 16 -9 16 C-9.33 17.32 -9.66 18.64 -10 20 C-9.34 20 -8.68 20 -8 20 C-8 20.99 -8 21.98 -8 23 C-8.99 23 -9.98 23 -11 23 C-11.33 23.99 -11.66 24.98 -12 26 C-12.33 25.01 -12.66 24.02 -13 23 C-13.66 23.99 -14.32 24.98 -15 26 C-16.65438613 26.69658363 -18.32254318 27.36096883 -20 28 C-21.33790641 28.99387334 -22.67218122 29.9926892 -24 31 C-24.66 31 -25.32 31 -26 31 C-26 31.66 -26 32.32 -26 33 C-25.34 33 -24.68 33 -24 33 C-24 36.96 -24 40.92 -24 45 C-24.33 45 -24.66 45 -25 45 C-25.33 42.69 -25.66 40.38 -26 38 C-26.99 38 -27.98 38 -29 38 C-30 36 -30 36 -29.5 34.0625 C-28.76397597 31.82334576 -28.76397597 31.82334576 -30 29 C-29.360625 28.87625 -28.72125 28.7525 -28.0625 28.625 C-27.381875 28.41875 -26.70125 28.2125 -26 28 C-25.67 27.34 -25.34 26.68 -25 26 C-26.32 26.33 -27.64 26.66 -29 27 C-27.02 24.69 -25.04 22.38 -23 20 C-23.66 20 -24.32 20 -25 20 C-24 18 -24 18 -21.76953125 17.171875 C-18.37298951 15.73469232 -16.35010786 13.79315657 -13.6875 11.25 C-9.32151542 7.1679819 -4.88327762 3.44208107 0 0 Z " fill="#3F2A0E" transform="translate(105,79)"/>
<path d="M0 0 C2.31 0 4.62 0 7 0 C7 3.3 7 6.6 7 10 C8.65 10 10.3 10 12 10 C12 7.69 12 5.38 12 3 C13.98 3 15.96 3 18 3 C18 5.31 18 7.62 18 10 C23.94 10 29.88 10 36 10 C36.495 12.475 36.495 12.475 37 15 C20.83 15 4.66 15 -12 15 C-11.34 13.35 -10.68 11.7 -10 10 C-7.375 9.1875 -7.375 9.1875 -5 9 C-5 7.02 -5 5.04 -5 3 C-3.35 2.67 -1.7 2.34 0 2 C0 1.34 0 0.68 0 0 Z " fill="#6B4B25" transform="translate(91,113)"/>
<path d="M0 0 C4.43751914 0.43840551 7.01397367 3.49370831 10.0625 6.4375 C14.31067232 10.4809307 14.31067232 10.4809307 19 14 C19.29296875 16.3828125 19.29296875 16.3828125 19.1875 19.125 C19.16042969 20.03507812 19.13335937 20.94515625 19.10546875 21.8828125 C19.07066406 22.58148438 19.03585938 23.28015625 19 24 C20.32 24.66 21.64 25.32 23 26 C22.01 26.495 22.01 26.495 21 27 C14.29540481 21.9059081 14.29540481 21.9059081 13.0625 18.125 C13.041875 17.42375 13.02125 16.7225 13 16 C10.525 15.505 10.525 15.505 8 15 C8 16.98 8 18.96 8 21 C6.68 21 5.36 21 4 21 C4 19.02 4 17.04 4 15 C2.02 15 0.04 15 -2 15 C-2 16.65 -2 18.3 -2 20 C-3.65 20.66 -5.3 21.32 -7 22 C-7.33 21.34 -7.66 20.68 -8 20 C-8.66 20 -9.32 20 -10 20 C-10 19.34 -10 18.68 -10 18 C-9.34 18 -8.68 18 -8 18 C-8 17.01 -8 16.02 -8 15 C-8.66 15 -9.32 15 -10 15 C-9.875 13.1875 -9.875 13.1875 -9 11 C-5.58893688 8.69951557 -3.75454424 7.93013479 0.375 8.3125 C1.24125 8.539375 2.1075 8.76625 3 9 C2.65555119 6.52733235 2.65555119 6.52733235 2 4 C1.34 3.67 0.68 3.34 0 3 C0 2.01 0 1.02 0 0 Z " fill="#EDC58A" transform="translate(105,84)"/>
<path d="M0 0 C1.98 0 3.96 0 6 0 C6 1.98 6 3.96 6 6 C7.32 6 8.64 6 10 6 C10 4.02 10 2.04 10 0 C11.65 0 13.3 0 15 0 C15.65104167 1.66015625 16.30208333 3.3203125 16.953125 4.98046875 C18.25430094 7.65140997 18.25430094 7.65140997 22 12 C8.14 12 -5.72 12 -20 12 C-14.38769671 6.38769671 -14.38769671 6.38769671 -9.4375 6.25 C-6.1318687 6.12162597 -3.18369333 5.92888935 0 5 C0 3.35 0 1.7 0 0 Z " fill="#361F08" transform="translate(103,99)"/>
<path d="M0 0 C2.475 0.99 2.475 0.99 5 2 C5.33 11.24 5.66 20.48 6 30 C8.51083114 28.74458443 8.87125446 27.49936512 10 25 C11.32 25.33 12.64 25.66 14 26 C12.84826645 28.46800047 11.95216435 30.04783565 10 32 C10.66 32.33 11.32 32.66 12 33 C12 33.66 12 34.32 12 35 C9.36 35.33 6.72 35.66 4 36 C3.01 34.68 2.02 33.36 1 32 C1.66 31.67 2.32 31.34 3 31 C0.69 30.34 -1.62 29.68 -4 29 C-4 28.34 -4 27.68 -4 27 C-3.34 26.67 -2.68 26.34 -2 26 C-2.66 24.68 -3.32 23.36 -4 22 C-3.34 21.67 -2.68 21.34 -2 21 C-2 19.68 -2 18.36 -2 17 C-1.34 16.67 -0.68 16.34 0 16 C1.33304698 13.10813214 1.33304698 13.10813214 0.0625 10.8125 C-0.288125 10.214375 -0.63875 9.61625 -1 9 C-0.34 8.67 0.32 8.34 1 8 C0.7525 6.8553125 0.7525 6.8553125 0.5 5.6875 C0 3 0 3 0 0 Z " fill="#B4915A" transform="translate(135,82)"/>
<path d="M0 0 C9.24 0 18.48 0 28 0 C28 2.97 28 5.94 28 9 C22.39 9 16.78 9 11 9 C11 6.69 11 4.38 11 2 C9.02 2 7.04 2 5 2 C5 4.31 5 6.62 5 9 C3.35 9 1.7 9 0 9 C0 6.03 0 3.06 0 0 Z " fill="#D2A96D" transform="translate(98,114)"/>
<path d="M0 0 C6.84341361 2.53459763 13.11779532 6.53193076 18 12 C18.66 12.66 19.32 13.32 20 14 C16.62537285 13.45276317 14.91765 12.9451 12 11 C9.94290404 10.75944532 9.94290404 10.75944532 7.8125 10.875 C6.554375 10.91625 5.29625 10.9575 4 11 C4.09539063 11.66386719 4.19078125 12.32773437 4.2890625 13.01171875 C5.39015817 21.78207381 5.39015817 21.78207381 3 26 C2.34 26 1.68 26 1 26 C-3.89795918 21.10204082 -3.89795918 21.10204082 -4.3125 16.625 C-4.209375 15.75875 -4.10625 14.8925 -4 14 C-3.34 14 -2.68 14 -2 14 C-1.4254048 10.26513121 -1 6.78706732 -1 3 C-0.34 3 0.32 3 1 3 C0.67 2.01 0.34 1.02 0 0 Z " fill="#2A2B15" transform="translate(35,48)"/>
<path d="M0 0 C0.5878125 0.30679687 1.175625 0.61359375 1.78125 0.9296875 C4.16099693 2.14058132 4.16099693 2.14058132 7.5 3.125 C11.61625979 5.33013917 12.45842045 6.98720263 14.17578125 11.16015625 C14.95513493 13.19261707 14.95513493 13.19261707 17 15 C19.32275177 15.40047444 21.65739357 15.7397104 24 16 C24 16.33 24 16.66 24 17 C22.35 17 20.7 17 19 17 C18.77026859 21.70949382 19.34950283 25.56971812 21 30 C21.99 30.33 22.98 30.66 24 31 C23.01 31.33 22.02 31.66 21 32 C16.58935631 29.39885116 15.06440578 26.34948104 13.0390625 21.87890625 C12.01211984 19.73418802 12.01211984 19.73418802 9.375 17.9375 C6.16007178 15.3147954 6.04424779 12.98119468 5 9 C3.46151479 5.92302959 1.75673945 2.95695457 0 0 Z " fill="#637E65" transform="translate(120,4)"/>
<path d="M0 0 C6.05303352 -0.24706259 11.19654642 0.2747978 16.4375 3.5 C16.953125 3.995 17.46875 4.49 18 5 C18 5.66 18 6.32 18 7 C18.639375 7.28875 19.27875 7.5775 19.9375 7.875 C22 9 22 9 23 11 C21.35 11 19.7 11 18 11 C18 11.66 18 12.32 18 13 C20.31 13.33 22.62 13.66 25 14 C25 14.99 25 15.98 25 17 C20.29336262 16.46616589 16.9217322 14.31728256 13.0625 11.75 C12.46759766 11.36714844 11.87269531 10.98429688 11.25976562 10.58984375 C7.26374218 7.97823498 3.53366375 5.21536426 0 2 C0 1.34 0 0.68 0 0 Z M24 0 C25.32 0 26.64 0 28 0 C28 4.95 28 9.9 28 15 C27.01 14.34 26.02 13.68 25 13 C25.33 9.04 25.66 5.08 26 1 C25.34 0.67 24.68 0.34 24 0 Z " fill="#2E1B05" transform="translate(40,119)"/>
<path d="M0 0 C11.3875135 1.78514572 22.36262114 1.07351068 33.8125 0.125 C32.8225 0.785 31.8325 1.445 30.8125 2.125 C33.4525 2.125 36.0925 2.125 38.8125 2.125 C38.8125 2.455 38.8125 2.785 38.8125 3.125 C21.25827005 7.37199112 3.18659966 7.41953997 -14.1875 2.125 C-14.1875 1.795 -14.1875 1.465 -14.1875 1.125 C-8.96338627 -0.68103164 -5.55231153 -0.96406695 0 0 Z " fill="#7C6755" transform="translate(90.1875,143.875)"/>
<path d="M0 0 C0.33 0 0.66 0 1 0 C1.33 4.95 1.66 9.9 2 15 C1.67 15 1.34 15 1 15 C1 13.02 1 11.04 1 9 C0.34 9 -0.32 9 -1 9 C-0.67 12.63 -0.34 16.26 0 20 C0.66 20 1.32 20 2 20 C2 20.66 2 21.32 2 22 C2.556875 22.226875 3.11375 22.45375 3.6875 22.6875 C6.66159588 24.37550036 8.72008865 26.46676517 11 29 C11 29.66 11 30.32 11 31 C8.04590299 29.62845496 5.55991624 28.01136276 3 26 C2.34 26.33 1.68 26.66 1 27 C1 27.99 1 28.98 1 30 C0.34 29.67 -0.32 29.34 -1 29 C-1 27.68 -1 26.36 -1 25 C-1.33 25.66 -1.66 26.32 -2 27 C-2.66 27 -3.32 27 -4 27 C-6.37441953 22.15222679 -7.8170473 18.51506924 -7 13 C-4.625 10.0625 -4.625 10.0625 -2 8 C-1.34 8 -0.68 8 0 8 C0 5.36 0 2.72 0 0 Z " fill="#3E5238" transform="translate(180,33)"/>
<path d="M0 0 C16.83 0 33.66 0 51 0 C51 0.33 51 0.66 51 1 C49.3603125 1.2165625 49.3603125 1.2165625 47.6875 1.4375 C44.06877013 1.88288104 44.06877013 1.88288104 41 3 C41 2.34 41 1.68 41 1 C34.565 1.495 34.565 1.495 28 2 C28 2.33 28 2.66 28 3 C26.35 3 24.7 3 23 3 C22.67 3.99 22.34 4.98 22 6 C18.4375 7.6875 18.4375 7.6875 15 9 C15 7 15 5 15 3 C11.75016865 4.08784968 11.75016865 4.08784968 9 6 C7.33382885 6.04063832 5.66611905 6.042721 4 6 C5.32 5.67 6.64 5.34 8 5 C8 4.34 8 3.68 8 3 C6.68 3 5.36 3 4 3 C4 2.34 4 1.68 4 1 C2.68 0.67 1.36 0.34 0 0 Z " fill="#2A1402" transform="translate(78,128)"/>
<path d="M0 0 C0.44730469 0.38671875 0.89460938 0.7734375 1.35546875 1.171875 C2.60999089 2.25252947 3.86798374 3.32916423 5.12890625 4.40234375 C6.63937194 5.69207333 8.13465235 6.99957469 9.625 8.3125 C12.15381643 10.10929062 13.94460847 10.6508124 17 11 C17.144375 11.598125 17.28875 12.19625 17.4375 12.8125 C17.8872439 14.56150404 18.42892341 16.28677023 19 18 C19.66 18 20.32 18 21 18 C21 18.99 21 19.98 21 21 C19 21 19 21 16.76953125 18.89453125 C15.84450628 17.93145898 14.92147437 16.96647006 14 16 C12.96488607 14.95959982 11.92704232 13.92190967 10.88671875 12.88671875 C7.92447917 9.92447917 4.96223958 6.96223958 2 4 C-2.13211732 5.37981893 -4.6669732 7.26200362 -7.8125 10.25 C-12.01484875 14.14993085 -16.33278629 17.675588 -21 21 C-21.66 20.67 -22.32 20.34 -23 20 C-21.69791667 18.56770833 -20.39583333 17.13541667 -19.09375 15.703125 C-17.63975508 13.77639485 -17.63975508 13.77639485 -18 10 C-17.01 10 -16.02 10 -15 10 C-14.67 10.66 -14.34 11.32 -14 12 C-13.24074219 11.30132812 -12.48148438 10.60265625 -11.69921875 9.8828125 C-10.69540947 8.96343578 -9.69149785 8.04417079 -8.6875 7.125 C-8.18798828 6.66480469 -7.68847656 6.20460938 -7.17382812 5.73046875 C-4.85790957 3.61393392 -2.61710426 1.74473617 0 0 Z " fill="#BC9F6A" transform="translate(105,76)"/>
<path d="M0 0 C2.125 0.375 2.125 0.375 4 1 C3.360625 1.28875 2.72125 1.5775 2.0625 1.875 C-0.15206079 2.82823451 -0.15206079 2.82823451 -1 5 C-1.07194869 7.88370333 -1.09291708 10.74239664 -1.0625 13.625 C-1.05798828 14.42679688 -1.05347656 15.22859375 -1.04882812 16.0546875 C-1.03703168 18.03649006 -1.01909605 20.01825433 -1 22 C-0.04287109 22.43119141 -0.04287109 22.43119141 0.93359375 22.87109375 C3.44966495 24.24565817 3.7811706 25.48108591 5 28 C5.99 28.33 6.98 28.66 8 29 C8 29.66 8 30.32 8 31 C4.63279613 29.60667426 3.0140476 28.0210714 1 25 C1.33 25.515625 1.66 26.03125 2 26.5625 C3.32010877 29.78026512 3.13242105 32.5570528 3 36 C2.01 36 1.02 36 0 36 C-0.13277344 35.28972656 -0.26554687 34.57945313 -0.40234375 33.84765625 C-0.66724609 32.46900391 -0.66724609 32.46900391 -0.9375 31.0625 C-1.11152344 30.14597656 -1.28554687 29.22945312 -1.46484375 28.28515625 C-1.77714988 26.04710156 -1.77714988 26.04710156 -3 25 C-3.14115161 22.32941149 -3.04247107 19.67567762 -3 17 C-4.32 17.33 -5.64 17.66 -7 18 C-7 20.31 -7 22.62 -7 25 C-7.33 25 -7.66 25 -8 25 C-8 22.36 -8 19.72 -8 17 C-7.01 16.67 -6.02 16.34 -5 16 C-5.061875 14.989375 -5.12375 13.97875 -5.1875 12.9375 C-4.94137867 7.76895214 -3.76095081 3.76095081 0 0 Z " fill="#2F3820" transform="translate(111,41)"/>
<path d="M0 0 C0.66 0.33 1.32 0.66 2 1 C1.67 1.99 1.34 2.98 1 4 C1.66 4 2.32 4 3 4 C3.37125 5.5159375 3.37125 5.5159375 3.75 7.0625 C4.89660638 11.13378354 6.79741473 14.40244406 9 18 C10.98 18 12.96 18 15 18 C14.01 18.66 13.02 19.32 12 20 C12 20.99 12 21.98 12 23 C11.34 23.33 10.68 23.66 10 24 C9.53348793 26.12576782 9.53348793 26.12576782 9.375 28.5625 C9.30023438 29.38878906 9.22546875 30.21507812 9.1484375 31.06640625 C9.09945312 31.70449219 9.05046875 32.34257812 9 33 C8.34 33 7.68 33 7 33 C6.67 28.38 6.34 23.76 6 19 C3.69 18.67 1.38 18.34 -1 18 C-1.33 14.37 -1.66 10.74 -2 7 C-0.68 7 0.64 7 2 7 C2 6.34 2 5.68 2 5 C1.01 4.67 0.02 4.34 -1 4 C-0.67 2.68 -0.34 1.36 0 0 Z " fill="#95774E" transform="translate(61,100)"/>
<path d="M0 0 C5.5738237 3.99248607 9.24790458 8.23639636 11 15 C10.67 15.99 10.34 16.98 10 18 C8.20353564 17.07172661 6.41296443 16.13204162 4.625 15.1875 C3.62726563 14.66542969 2.62953125 14.14335938 1.6015625 13.60546875 C-1 12 -1 12 -3 9 C-3.3125 6 -3.3125 6 -3 3 C-1.48046875 1.3125 -1.48046875 1.3125 0 0 Z " fill="#2A2E18" transform="translate(124,38)"/>
<path d="M0 0 C4.51273595 0.35394007 4.51273595 0.35394007 7 2 C8.54714945 5.05551243 9.63168358 8.08363118 10.6640625 11.34765625 C11.10492188 12.22292969 11.54578125 13.09820312 12 14 C14.55732987 14.96829849 14.55732987 14.96829849 17 15 C16.67 15.66 16.34 16.32 16 17 C11.48930108 17.55233048 8.74738976 17.2671412 5.1875 14.5 C1.48998306 11.04183125 0.90982247 7.87995691 0 3 C-0.66 2.67 -1.32 2.34 -2 2 C-1.34 2 -0.68 2 0 2 C0 1.34 0 0.68 0 0 Z " fill="#6B846B" transform="translate(50,25)"/>
<path d="M0 0 C0.99 0.33 1.98 0.66 3 1 C3.33 3.31 3.66 5.62 4 8 C3.34 7.67 2.68 7.34 2 7 C2 5.35 2 3.7 2 2 C1.34 2 0.68 2 0 2 C0.020625 2.9075 0.04125 3.815 0.0625 4.75 C-0.03355705 9.74496644 -0.03355705 9.74496644 -1 12 C-4.51962373 14.27072499 -6.81807487 14 -11 14 C-11.33 14.66 -11.66 15.32 -12 16 C-12.66 14.68 -13.32 13.36 -14 12 C-12.35 11.67 -10.7 11.34 -9 11 C-9.66 11 -10.32 11 -11 11 C-10.34 7.7 -9.68 4.4 -9 1 C-8.01 1 -7.02 1 -6 1 C-5.67 3.97 -5.34 6.94 -5 10 C-4.34 10 -3.68 10 -3 10 C-3 7.69 -3 5.38 -3 3 C-2.34 3 -1.68 3 -1 3 C-0.67 2.01 -0.34 1.02 0 0 Z " fill="#D8B57E" transform="translate(75,83)"/>
<path d="M0 0 C0 0.66 0 1.32 0 2 C-0.66 2 -1.32 2 -2 2 C-2 5.63 -2 9.26 -2 13 C-2.33 13 -2.66 13 -3 13 C-3 10.03 -3 7.06 -3 4 C-4.21731812 4.01571045 -4.21731812 4.01571045 -5.45922852 4.03173828 C-9.16028711 4.0734865 -12.86129601 4.09938613 -16.5625 4.125 C-18.47772461 4.15013672 -18.47772461 4.15013672 -20.43164062 4.17578125 C-26.65522259 4.20811155 -32.14953928 4.23461206 -38 2 C-38 1.67 -38 1.34 -38 1 C-33.23114211 0.85682765 -28.46226186 0.7144331 -23.69335938 0.57275391 C-22.07160823 0.52446435 -20.44986335 0.47596364 -18.828125 0.42724609 C-16.49480792 0.35718939 -14.16146921 0.28789635 -11.828125 0.21875 C-11.10506165 0.19687622 -10.38199829 0.17500244 -9.63702393 0.15246582 C-6.42215327 0.05786882 -3.21673398 0 0 0 Z " fill="#806339" transform="translate(129,110)"/>
<path d="M0 0 C0.66 0 1.32 0 2 0 C5.9067623 6.4272541 5.9067623 6.4272541 6.4375 9.6875 C6.79918389 12.21809061 6.79918389 12.21809061 9.25 13.75 C11.99485474 15.99579024 12.86476985 17.35820635 14.4375 20.4375 C16.68994825 24.78458165 19.04756954 27.15057339 23 30 C22.67 30.99 22.34 31.98 22 33 C16.52744037 29.93102115 12.84592914 26.94476604 9 22 C8.01 21.34 7.02 20.68 6 20 C6 19.01 6 18.02 6 17 C8 17 8 17 10.125 19 C10.74375 19.66 11.3625 20.32 12 21 C10.45388741 18.07052352 9.31424922 16.21755716 6.5625 14.3125 C2.81641213 10.93188412 1.48317543 6.75610446 0 2 C0 1.34 0 0.68 0 0 Z " fill="#2D311C" transform="translate(121,8)"/>
<path d="M0 0 C0.12375 0.53625 0.2475 1.0725 0.375 1.625 C1.12206016 4.4638286 2.05303364 7.22223202 3 10 C3.66 10 4.32 10 5 10 C5 12.64 5 15.28 5 18 C5.66 18.33 6.32 18.66 7 19 C6.67 20.32 6.34 21.64 6 23 C2.125 21.25 2.125 21.25 1 19 C1.66 18.67 2.32 18.34 3 18 C0.69 17.34 -1.62 16.68 -4 16 C-4 15.34 -4 14.68 -4 14 C-3.34 13.67 -2.68 13.34 -2 13 C-2.66 11.68 -3.32 10.36 -4 9 C-3.34 8.67 -2.68 8.34 -2 8 C-2 6.68 -2 5.36 -2 4 C-1.34 3.67 -0.68 3.34 0 3 C0 2.01 0 1.02 0 0 Z " fill="#A47944" transform="translate(135,95)"/>
<path d="M0 0 C0.66 0 1.32 0 2 0 C2.04898438 0.71027344 2.09796875 1.42054687 2.1484375 2.15234375 C2.22320312 3.07144531 2.29796875 3.99054687 2.375 4.9375 C2.44460937 5.85402344 2.51421875 6.77054688 2.5859375 7.71484375 C2.72257813 8.46894531 2.85921875 9.22304688 3 10 C3.66 10.33 4.32 10.66 5 11 C4.125 15.875 4.125 15.875 3 17 C2.76924918 18.34747084 2.58846937 19.70377565 2.4375 21.0625 C2.293125 22.361875 2.14875 23.66125 2 25 C0 25 0 25 -1.6875 23.5625 C-3.65849504 19.71436683 -2.90727203 16.14152882 -2 12 C-1.67 11.67 -1.34 11.34 -1 11 C-0.95372155 9.33397597 -0.96213099 7.66623639 -1 6 C-1.03786901 4.33376361 -1.04627845 2.66602403 -1 1 C-0.67 0.67 -0.34 0.34 0 0 Z " fill="#3B492F" transform="translate(168,53)"/>
<path d="M0 0 C-0.66 1.32 -1.32 2.64 -2 4 C-1.34 4 -0.68 4 0 4 C0.82638376 6.89234315 1 8.88742431 1 12 C-0.32 12 -1.64 12 -3 12 C-3.33 13.98 -3.66 15.96 -4 18 C-4.99 18 -5.98 18 -7 18 C-6.34 14.7 -5.68 11.4 -5 8 C-5.66 8 -6.32 8 -7 8 C-7 5.36 -7 2.72 -7 0 C-2.25 -1.125 -2.25 -1.125 0 0 Z " fill="#E8C589" transform="translate(148,94)"/>
<path d="M0 0 C5.28 0 10.56 0 16 0 C16 2.31 16 4.62 16 7 C15.34 6.34 14.68 5.68 14 5 C13.67 5.99 13.34 6.98 13 8 C12.34 8 11.68 8 11 8 C11 6.02 11 4.04 11 2 C9.02 2 7.04 2 5 2 C5 4.31 5 6.62 5 9 C3.35 9 1.7 9 0 9 C0 6.03 0 3.06 0 0 Z " fill="#DDB579" transform="translate(98,114)"/>
<path d="M0 0 C-0.33 1.98 -0.66 3.96 -1 6 C-1.99 6 -2.98 6 -4 6 C-3.67 9.3 -3.34 12.6 -3 16 C-7 17 -7 17 -9.25 15.875 C-11 14 -11 14 -11.25 11.3125 C-11.1675 10.549375 -11.085 9.78625 -11 9 C-9.68 9.99 -8.36 10.98 -7 12 C-7.495 11.38125 -7.99 10.7625 -8.5 10.125 C-10 8 -10 8 -10 6 C-9.01 5.67 -8.02 5.34 -7 5 C-6.67 4.34 -6.34 3.68 -6 3 C-4.60722783 0.21445565 -3.01148006 0 0 0 Z " fill="#3F5137" transform="translate(91,33)"/>
<path d="M0 0 C2.31 0 4.62 0 7 0 C6.67 2.97 6.34 5.94 6 9 C2.37 9 -1.26 9 -5 9 C-5 7.02 -5 5.04 -5 3 C-3.35 2.67 -1.7 2.34 0 2 C0 1.34 0 0.68 0 0 Z " fill="#301A03" transform="translate(91,113)"/>
<path d="M0 0 C0.66 0 1.32 0 2 0 C2.86114699 3.91430448 3.22345413 6.36687997 1.875 10.1875 C-0.12220541 13.18330812 -2.01220215 15.00813477 -5 17 C-5.66 17 -6.32 17 -7 17 C-7.66 18.32 -8.32 19.64 -9 21 C-9.66 18.03 -10.32 15.06 -11 12 C-7.38026598 10.68373308 -4.90432869 10 -1 10 C-1.33 9.01 -1.66 8.02 -2 7 C-1.40206327 4.64811553 -0.74118205 2.31074405 0 0 Z " fill="#E9C383" transform="translate(75,85)"/>
<path d="M0 0 C-5.15005223 4.70222161 -10.59270274 9.12119686 -17 12 C-17.99 11.67 -18.98 11.34 -20 11 C-18.49821378 6.99818144 -16.20119996 5.52245735 -12.625 3.3125 C-11.66851562 2.71050781 -10.71203125 2.10851562 -9.7265625 1.48828125 C-5.89044305 -0.60564642 -4.19502928 -1.39834309 0 0 Z " fill="#715E48" transform="translate(166,127)"/>
<path d="M0 0 C3.96 0 7.92 0 12 0 C12 0.99 12 1.98 12 3 C11.34 3 10.68 3 10 3 C10 5.31 10 7.62 10 10 C6.50832834 9.70902736 5.23799325 9.24460417 2.75 6.6875 C1 4 1 4 0 0 Z " fill="#292B15" transform="translate(79,73)"/>
<path d="M0 0 C1.98 0 3.96 0 6 0 C6 1.98 6 3.96 6 6 C7.32 6 8.64 6 10 6 C10 4.02 10 2.04 10 0 C11.65 0 13.3 0 15 0 C15.66 2.31 16.32 4.62 17 7 C13.04 7 9.08 7 5 7 C5 5.02 5 3.04 5 1 C3.68 1 2.36 1 1 1 C1 2.65 1 4.3 1 6 C1.99 6.33 2.98 6.66 4 7 C1.36 7 -1.28 7 -4 7 C-2.68 6.34 -1.36 5.68 0 5 C0 3.35 0 1.7 0 0 Z " fill="#9B7C4B" transform="translate(103,99)"/>
<path d="M0 0 C3.71368887 1.23789629 4.77354181 2.85224877 7 6 C7 6.66 7 7.32 7 8 C7.66 8 8.32 8 9 8 C9 8.66 9 9.32 9 10 C8.34 10 7.68 10 7 10 C7.33 12.64 7.66 15.28 8 18 C7.01 18.66 6.02 19.32 5 20 C3 18 3 18 2.9453125 15.35546875 C3.03425781 13.78732422 3.03425781 13.78732422 3.125 12.1875 C3.24154129 7.19475849 3.24154129 7.19475849 1 2.75 C0.34 2.1725 -0.32 1.595 -1 1 C-0.67 0.67 -0.34 0.34 0 0 Z " fill="#3A462A" transform="translate(27,41)"/>
<path d="M0 0 C2.47709607 0.34166842 3.77141885 0.78900202 5.625 2.5 C7.62460016 6.13563666 8.2632145 9.94334571 9 14 C8.34 13.67 7.68 13.34 7 13 C7 12.34 7 11.68 7 11 C5.35 11.33 3.7 11.66 2 12 C-1.57142857 4.71428571 -1.57142857 4.71428571 0 0 Z " fill="#3B4E35" transform="translate(139,22)"/>
<path d="M0 0 C2.475 0.99 2.475 0.99 5 2 C4.67 8.6 4.34 15.2 4 22 C2.68 21.01 1.36 20.02 0 19 C0.66 17.02 1.32 15.04 2 13 C1.01 12.34 0.02 11.68 -1 11 C-1 10.34 -1 9.68 -1 9 C-0.34 8.67 0.32 8.34 1 8 C0.7525 6.8553125 0.7525 6.8553125 0.5 5.6875 C0 3 0 3 0 0 Z " fill="#C59E62" transform="translate(135,82)"/>
<path d="M0 0 C0.66 0 1.32 0 2 0 C2.66 0.66 3.32 1.32 4 2 C4.70125 2.391875 5.4025 2.78375 6.125 3.1875 C10.12302893 5.7079965 13.5039695 8.83362001 17 12 C16.01 12.33 15.02 12.66 14 13 C14.33 13.66 14.66 14.32 15 15 C14.236875 14.690625 13.47375 14.38125 12.6875 14.0625 C10.81210323 13.32106407 8.91315348 12.63771783 7 12 C6.6407737 10.67340837 6.31115337 9.33868311 6 8 C4.6114033 6.07627272 4.6114033 6.07627272 2.9375 4.3125 C0 1.08470588 0 1.08470588 0 0 Z " fill="#7C6A59" transform="translate(28,112)"/>
<path d="M0 0 C0.66 0 1.32 0 2 0 C2 1.65 2 3.3 2 5 C2.66 5 3.32 5 4 5 C4 6.32 4 7.64 4 9 C4.66 9 5.32 9 6 9 C5.67 11.31 5.34 13.62 5 16 C5.66 16 6.32 16 7 16 C7 16.66 7 17.32 7 18 C5.68 18 4.36 18 3 18 C2.67 16.02 2.34 14.04 2 12 C1.01 11.67 0.02 11.34 -1 11 C-2.0257259 6.58937864 -2.03684712 4.07369424 0 0 Z " fill="#D1B584" transform="translate(141,70)"/>
<path d="M0 0 C0.67095703 0.58007812 0.67095703 0.58007812 1.35546875 1.171875 C2.60999089 2.25252947 3.86798374 3.32916423 5.12890625 4.40234375 C6.63937194 5.69207333 8.13465235 6.99957469 9.625 8.3125 C12.15381643 10.10929062 13.94460847 10.6508124 17 11 C17.144375 11.598125 17.28875 12.19625 17.4375 12.8125 C17.8872439 14.56150404 18.42892341 16.28677023 19 18 C19.66 18 20.32 18 21 18 C21 18.99 21 19.98 21 21 C19 21 19 21 16.75 18.890625 C15.38875 17.45976563 15.38875 17.45976563 14 16 C12.00807835 13.90875073 10.00622993 11.82751728 8 9.75 C7.49210937 9.20859375 6.98421875 8.6671875 6.4609375 8.109375 C3.45683634 5.0282456 1.36691686 3.28898714 -3 3 C-2.01 2.01 -1.02 1.02 0 0 Z " fill="#CEB27C" transform="translate(105,76)"/>
<path d="M0 0 C0.99 0.33 1.98 0.66 3 1 C3 1.66 3 2.32 3 3 C4.134375 3.12375 5.26875 3.2475 6.4375 3.375 C7.613125 3.58125 8.78875 3.7875 10 4 C10.33 4.66 10.66 5.32 11 6 C9.1875 7.5625 9.1875 7.5625 7 9 C6.01 8.67 5.02 8.34 4 8 C1.10067643 10.39509338 0.49831724 12.31245243 0 16 C-0.33 16 -0.66 16 -1 16 C-1 12.04 -1 8.08 -1 4 C-0.34 4 0.32 4 1 4 C1 3.34 1 2.68 1 2 C0.34 1.67 -0.32 1.34 -1 1 C-0.67 0.67 -0.34 0.34 0 0 Z " fill="#2D210B" transform="translate(128,108)"/>
<path d="M0 0 C2.38671875 0.34765625 2.38671875 0.34765625 5 1 C8 5.03448276 8 5.03448276 8 8 C7.01 7.67 6.02 7.34 5 7 C5 6.34 5 5.68 5 5 C4.34 5 3.68 5 3 5 C3.85735235 9.05293836 4.47101158 11.47101158 7.4375 14.4375 C9.92668112 16.26030371 9.92668112 16.26030371 13 16 C12.54625 16.5775 12.0925 17.155 11.625 17.75 C10.15886484 19.7800333 9.05142216 21.73539843 8 24 C7.7525 22.948125 7.505 21.89625 7.25 20.8125 C6.48289018 18.05090466 5.99818005 16.99800942 4 14.8125 C0.84412889 10.37455625 0.64489684 5.32039895 0 0 Z " fill="#303822" transform="translate(112,22)"/>
<path d="M0 0 C0.99 0.99 1.98 1.98 3 3 C3.66 2.67 4.32 2.34 5 2 C5 6.95 5 11.9 5 17 C1.92056849 14.94704566 1.20706879 14.34265205 0 11 C-0.125 7.75 -0.125 7.75 0 5 C-0.66 5 -1.32 5 -2 5 C-2 4.01 -2 3.02 -2 2 C-1.34 2 -0.68 2 0 2 C0 1.34 0 0.68 0 0 Z " fill="#C79E65" transform="translate(64,99)"/>
<path d="M0 0 C0.99 0.33 1.98 0.66 3 1 C3 4.3 3 7.6 3 11 C4.32 11.66 5.64 12.32 7 13 C6.01 13.495 6.01 13.495 5 14 C-1.70459519 9.06345733 -1.70459519 9.06345733 -2.9375 4.625 C-2.9684375 3.325625 -2.9684375 3.325625 -3 2 C-2.01 1.34 -1.02 0.68 0 0 Z " fill="#D6B175" transform="translate(121,97)"/>
<path d="M0 0 C0.66 0 1.32 0 2 0 C2.66 1.32 3.32 2.64 4 4 C4.66 4 5.32 4 6 4 C5.67 4.99 5.34 5.98 5 7 C3.68 7 2.36 7 1 7 C1 7.66 1 8.32 1 9 C1.99 9.33 2.98 9.66 4 10 C3.34 10 2.68 10 2 10 C2 12.31 2 14.62 2 17 C0.68 16.67 -0.64 16.34 -2 16 C-1.34 14.35 -0.68 12.7 0 11 C-0.66 10.34 -1.32 9.68 -2 9 C-1.34 9 -0.68 9 0 9 C-0.33 8.01 -0.66 7.02 -1 6 C-0.67 5.67 -0.34 5.34 0 5 C-0.66 4.67 -1.32 4.34 -2 4 C-1.34 2.68 -0.68 1.36 0 0 Z " fill="#C3A572" transform="translate(74,101)"/>
<path d="M0 0 C1.32 0 2.64 0 4 0 C3.67 0.66 3.34 1.32 3 2 C2.34 1.67 1.68 1.34 1 1 C2.32 2.65 3.64 4.3 5 6 C4.34 6 3.68 6 3 6 C2.34 7.32 1.68 8.64 1 10 C0.34 10 -0.32 10 -1 10 C-0.34 11.32 0.32 12.64 1 14 C-0.65 13.67 -2.3 13.34 -4 13 C-3.67 12.113125 -3.34 11.22625 -3 10.3125 C-1.86753956 7.1379169 -1.86753956 7.1379169 -2 4.25 C-2 2 -2 2 0 0 Z " fill="#483E1C" transform="translate(133,90)"/>
<path d="M0 0 C4.74908547 2.80627778 7.19372222 5.25091453 10 10 C10.66 9.67 11.32 9.34 12 9 C11.67 10.32 11.34 11.64 11 13 C6.2465968 11.60194023 2.88992411 8.97972714 0 5 C-0.375 2.125 -0.375 2.125 0 0 Z " fill="#3E4E35" transform="translate(32,39)"/>
<path d="M0 0 C0.66 0 1.32 0 2 0 C5.9067623 6.4272541 5.9067623 6.4272541 6.4375 9.6875 C7.24444273 13.00493124 9.35994204 13.92566875 12 16 C13.8125 19.25 13.8125 19.25 15 22 C12 21 12 21 10.625 18.6875 C9.17470096 15.87511995 9.17470096 15.87511995 6.5625 14.3125 C2.81641213 10.93188412 1.48317543 6.75610446 0 2 C0 1.34 0 0.68 0 0 Z " fill="#313B23" transform="translate(121,8)"/>
<path d="M0 0 C1.32 0.66 2.64 1.32 4 2 C4 3.65 4 5.3 4 7 C2.88625 6.95875 1.7725 6.9175 0.625 6.875 C-3.04366025 6.58878141 -3.04366025 6.58878141 -5 9 C-5.99 8.67 -6.98 8.34 -8 8 C-6.71034824 6.62437146 -5.37310707 5.29233607 -4 4 C-3.34 4 -2.68 4 -2 4 C-1.34 2.68 -0.68 1.36 0 0 Z " fill="#B39465" transform="translate(104,86)"/>
<path d="M0 0 C2.31 0 4.62 0 7 0 C7 0.66 7 1.32 7 2 C6.01 2 5.02 2 4 2 C4 3.98 4 5.96 4 8 C4.99 8.33 5.98 8.66 7 9 C4.69 9 2.38 9 0 9 C0 6.03 0 3.06 0 0 Z " fill="#D8B27A" transform="translate(82,114)"/>
<path d="M0 0 C1.98 0.66 3.96 1.32 6 2 C5.34 4.31 4.68 6.62 4 9 C3.01 9 2.02 9 1 9 C0.67 8.01 0.34 7.02 0 6 C-0.33 6.66 -0.66 7.32 -1 8 C-1.99 7.67 -2.98 7.34 -4 7 C-3.525625 6.5875 -3.05125 6.175 -2.5625 5.75 C-0.83733482 3.817815 -0.43415125 2.51807725 0 0 Z " fill="#394B30" transform="translate(81,50)"/>
<path d="M0 0 C0.99 0.33 1.98 0.66 3 1 C3.33 3.31 3.66 5.62 4 8 C3.34 7.67 2.68 7.34 2 7 C2 5.35 2 3.7 2 2 C1.34 2 0.68 2 0 2 C0.020625 2.9075 0.04125 3.815 0.0625 4.75 C-0.03355705 9.74496644 -0.03355705 9.74496644 -1 12 C-3.0625 13.25 -3.0625 13.25 -5 14 C-5 12.68 -5 11.36 -5 10 C-4.34 10 -3.68 10 -3 10 C-3 7.69 -3 5.38 -3 3 C-2.34 3 -1.68 3 -1 3 C-0.67 2.01 -0.34 1.02 0 0 Z " fill="#C5AA72" transform="translate(75,83)"/>
<path d="M0 0 C-2.56538479 2.56538479 -5.06045896 3.37357879 -8.4375 4.6875 C-9.59121094 5.14511719 -10.74492187 5.60273438 -11.93359375 6.07421875 C-15 7 -15 7 -18 6 C-16.26192814 2.52385629 -12.32620482 2.05559935 -8.8125 0.8203125 C-5.76571372 -0.0683335 -3.16039364 -0.34166418 0 0 Z " fill="#76695E" transform="translate(147,139)"/>
<path d="M0 0 C-1.3125 2 -1.3125 2 -4 4 C-7.68855385 4.36089448 -11.3051649 4.22933459 -15 4 C-11.3460697 -1.5678938 -5.94143168 -0.36877852 0 0 Z " fill="#2F1A05" transform="translate(98,107)"/>
<path d="M0 0 C1.2065625 0.0309375 1.2065625 0.0309375 2.4375 0.0625 C2.4375 2.3725 2.4375 4.6825 2.4375 7.0625 C0.4575 7.0625 -1.5225 7.0625 -3.5625 7.0625 C-3.60504356 5.06295254 -3.60330783 3.06208364 -3.5625 1.0625 C-2.5625 0.0625 -2.5625 0.0625 0 0 Z " fill="#584325" transform="translate(118.5625,114.9375)"/>
<path d="M0 0 C0.33 0 0.66 0 1 0 C1.5321441 2.08047297 2.05031786 4.16452293 2.5625 6.25 C2.85253906 7.41015625 3.14257812 8.5703125 3.44140625 9.765625 C3.95179964 12.72090983 4.02996165 14.24434101 3 17 C0.984375 15.421875 0.984375 15.421875 -1 13 C-1.171875 9.765625 -1.171875 9.765625 -0.75 6.25 C-0.55664062 4.49429687 -0.55664062 4.49429687 -0.359375 2.703125 C-0.24078125 1.81109375 -0.1221875 0.9190625 0 0 Z " fill="#282C15" transform="translate(110,15)"/>
<path d="M0 0 C2.25 0.25 2.25 0.25 4 1 C3.44271087 4.34373475 2.64826111 7.03312999 1 10 C0.01 10 -0.98 10 -2 10 C-1.67 8.35 -1.34 6.7 -1 5 C-1.99 4.67 -2.98 4.34 -4 4 C-2.25 1.9375 -2.25 1.9375 0 0 Z " fill="#423113" transform="translate(148,110)"/>
<path d="M0 0 C1.32 0 2.64 0 4 0 C4 1.98 4 3.96 4 6 C7.63 6 11.26 6 15 6 C15 6.33 15 6.66 15 7 C8.73 7 2.46 7 -4 7 C-2.68 6.34 -1.36 5.68 0 5 C0 3.35 0 1.7 0 0 Z " fill="#543918" transform="translate(104,100)"/>
<path d="M0 0 C1.60785777 0.59427388 3.21117709 1.20083588 4.8125 1.8125 C6.15248047 2.31716797 6.15248047 2.31716797 7.51953125 2.83203125 C9.97654654 3.98895656 11.35986243 4.85520471 13 7 C13.6875 10.6875 13.6875 10.6875 14 14 C13.34 13.34 12.68 12.68 12 12 C12 10.68 12 9.36 12 8 C11.34 8 10.68 8 10 8 C9.67 7.34 9.34 6.68 9 6 C8.34 6.66 7.68 7.32 7 8 C7 7.34 7 6.68 7 6 C6.01 6 5.02 6 4 6 C1.8125 4.125 1.8125 4.125 0 2 C0 1.34 0 0.68 0 0 Z " fill="#98AB99" transform="translate(182,30)"/>
<path d="M0 0 C1.485 0.99 1.485 0.99 3 2 C3.1875 4.625 3.1875 4.625 3 7 C3.66 7 4.32 7 5 7 C5 8.65 5 10.3 5 12 C4.01 12.33 3.02 12.66 2 13 C0.24252386 8.49646738 -0.19294408 4.82360189 0 0 Z " fill="#3B4D34" transform="translate(93,31)"/>
<path d="M0 0 C0.7425 0.78375 1.485 1.5675 2.25 2.375 C4.61170902 4.62935861 6.05854919 5.80503561 9 7 C9.9075 7.37125 10.815 7.7425 11.75 8.125 C12.86375 8.558125 12.86375 8.558125 14 9 C13.67 9.66 13.34 10.32 13 11 C10.69 11 8.38 11 6 11 C6 10.34 6 9.68 6 9 C5.175 8.525625 4.35 8.05125 3.5 7.5625 C2.675 7.046875 1.85 6.53125 1 6 C1 5.01 1 4.02 1 3 C0.34 2.67 -0.32 2.34 -1 2 C-0.67 1.34 -0.34 0.68 0 0 Z " fill="#3D5137" transform="translate(48,33)"/>
<path d="M0 0 C1.98 0 3.96 0 6 0 C6 2.31 6 4.62 6 7 C4.68 7.33 3.36 7.66 2 8 C1.34 5.36 0.68 2.72 0 0 Z " fill="#EBC18A" transform="translate(120,114)"/>
<path d="M0 0 C1.98 0 3.96 0 6 0 C6 2.31 6 4.62 6 7 C5.34 6.34 4.68 5.68 4 5 C3.67 5.99 3.34 6.98 3 8 C2.34 8 1.68 8 1 8 C0.67 5.36 0.34 2.72 0 0 Z " fill="#EFC487" transform="translate(108,114)"/>
<path d="M0 0 C0.66 0 1.32 0 2 0 C5.42857143 7.28571429 5.42857143 7.28571429 5 12 C3 8.25 3 8.25 3 6 C-0.16666667 7.83333333 -0.16666667 7.83333333 -2 11 C-2.33 9.68 -2.66 8.36 -3 7 C-2.34 7 -1.68 7 -1 7 C-0.67 4.69 -0.34 2.38 0 0 Z " fill="#36280C" transform="translate(22,68)"/>
<path d="M0 0 C0.66 0 1.32 0 2 0 C4.84450614 3.71973879 5.3227506 6.37390802 5 11 C3.68 11 2.36 11 1 11 C0.67 7.37 0.34 3.74 0 0 Z " fill="#876336" transform="translate(59,107)"/>
<path d="M0 0 C0.99 0.33 1.98 0.66 3 1 C3.33 2.98 3.66 4.96 4 7 C3.34 7 2.68 7 2 7 C1.01 8.485 1.01 8.485 0 10 C-1.60339848 6.88228073 -2.18974141 5.60988311 -1.125 2.1875 C-0.75375 1.465625 -0.3825 0.74375 0 0 Z " fill="#39462D" transform="translate(60,50)"/>
<path d="M0 0 C2.47709607 0.34166842 3.77141885 0.78900202 5.625 2.5 C7.62460016 6.13563666 8.2632145 9.94334571 9 14 C5.27023241 10.78468312 3.81244211 7.53110528 2 3 C1.34 2.01 0.68 1.02 0 0 Z " fill="#2B301B" transform="translate(139,22)"/>
<path d="M0 0 C0.99 0.33 1.98 0.66 3 1 C3 1.99 3 2.98 3 4 C3.66 4.33 4.32 4.66 5 5 C5 5.66 5 6.32 5 7 C4.01 7.33 3.02 7.66 2 8 C1.26676204 10.01508358 1.26676204 10.01508358 1 12 C0.63597631 10.56496445 0.28413409 9.12683494 -0.0625 7.6875 C-0.25972656 6.88699219 -0.45695312 6.08648437 -0.66015625 5.26171875 C-1 3 -1 3 0 0 Z " fill="#50421E" transform="translate(58,100)"/>
<path d="M0 0 C0.66 0 1.32 0 2 0 C3.19876651 5.44893869 2.91360308 8.22169095 0 13 C-0.66 12.67 -1.32 12.34 -2 12 C-2.26252625 7.66831683 -1.29243536 4.1196377 0 0 Z " fill="#F5D090" transform="translate(75,85)"/>
<path d="M0 0 C0.66 0 1.32 0 2 0 C2.25394531 0.60328125 2.50789063 1.2065625 2.76953125 1.828125 C5.29568376 7.75675636 5.29568376 7.75675636 9 13 C4.77565886 11.43542921 2.55473302 8.61920511 0 5 C-0.3125 2.125 -0.3125 2.125 0 0 Z " fill="#2F361F" transform="translate(48,28)"/>
<path d="M0 0 C2.0625 0.4375 2.0625 0.4375 4 1 C4 1.66 4 2.32 4 3 C4.61875 3.2475 5.2375 3.495 5.875 3.75 C8.35068687 5.20628639 8.95125002 6.37812506 10 9 C8.68 8.67 7.36 8.34 6 8 C6 7.34 6 6.68 6 6 C5.401875 5.731875 4.80375 5.46375 4.1875 5.1875 C2.02775192 4.01506533 0.64209744 2.80630718 -1 1 C-0.67 0.67 -0.34 0.34 0 0 Z " fill="#8F6B3D" transform="translate(52,118)"/>
<path d="M0 0 C0.66 0.33 1.32 0.66 2 1 C1.67 1.99 1.34 2.98 1 4 C1.66 4 2.32 4 3 4 C3.66 7.3 4.32 10.6 5 14 C4.01 14.495 4.01 14.495 3 15 C0 9.25 0 9.25 0 7 C0.66 7 1.32 7 2 7 C2 6.34 2 5.68 2 5 C1.01 4.67 0.02 4.34 -1 4 C-0.67 2.68 -0.34 1.36 0 0 Z " fill="#AA844E" transform="translate(61,100)"/>
<path d="M0 0 C2.3125 0.1875 2.3125 0.1875 5 1 C8 5.03448276 8 5.03448276 8 8 C7.01 7.67 6.02 7.34 5 7 C5 6.34 5 5.68 5 5 C4.34 5 3.68 5 3 5 C2.67 5.99 2.34 6.98 2 8 C0.74335022 5.09399739 0 3.20395416 0 0 Z " fill="#3A4A31" transform="translate(112,22)"/>
<path d="M0 0 C2.30677124 0.64877941 3.50763906 1.5617624 4.875 3.52734375 C4.545 4.18734375 4.215 4.84734375 3.875 5.52734375 C-1 3.65234375 -1 3.65234375 -2.125 2.52734375 C-4.45797433 2.48641438 -6.79205225 2.48492652 -9.125 2.52734375 C-6.69776722 -1.26520747 -3.99792796 -0.65407277 0 0 Z " fill="#A4B1A4" transform="translate(40.125,13.47265625)"/>
<path d="M0 0 C-0.33 1.98 -0.66 3.96 -1 6 C-5.455 6.495 -5.455 6.495 -10 7 C-9.01 6.34 -8.02 5.68 -7 5 C-6.505 3.9790625 -6.505 3.9790625 -6 2.9375 C-4.59304238 0.21151962 -2.96266324 0 0 0 Z " fill="#3A4A31" transform="translate(91,33)"/>
<path d="M0 0 C3.03852705 1.40976705 5.5939595 3.08870228 8.25 5.125 C8.95640625 5.66382813 9.6628125 6.20265625 10.390625 6.7578125 C10.92171875 7.16773438 11.4528125 7.57765625 12 8 C10 9 10 9 7.6875 8.4375 C4.08871317 6.51256751 2.43310074 4.26730671 0 1 C0 0.67 0 0.34 0 0 Z " fill="#53402F" transform="translate(41,124)"/>
<path d="M0 0 C1.32 0 2.64 0 4 0 C4 4.29 4 8.58 4 13 C3.34 13 2.68 13 2 13 C1.93941406 12.22914063 1.87882813 11.45828125 1.81640625 10.6640625 C1.73261719 9.66117188 1.64882812 8.65828125 1.5625 7.625 C1.48128906 6.62726563 1.40007812 5.62953125 1.31640625 4.6015625 C1.15034374 2.02072387 1.15034374 2.02072387 0 0 Z " fill="#745C3C" transform="translate(137,120)"/>
<path d="M0 0 C1.65 0 3.3 0 5 0 C5 1.98 5 3.96 5 6 C3.35 5.67 1.7 5.34 0 5 C0 3.35 0 1.7 0 0 Z " fill="#544426" transform="translate(113,99)"/>
<path d="M0 0 C2.97 0.495 2.97 0.495 6 1 C6 2.32 6 3.64 6 5 C4.35 5.66 2.7 6.32 1 7 C0.67 6.34 0.34 5.68 0 5 C-0.66 5 -1.32 5 -2 5 C-2 4.34 -2 3.68 -2 3 C-1.34 3 -0.68 3 0 3 C0 2.01 0 1.02 0 0 Z " fill="#D9AF74" transform="translate(97,99)"/>
<path d="M0 0 C3.20135072 3.96357709 5.39002275 8.17006825 7 13 C3.95091476 11.98363825 2.93094539 11.46515507 1 9 C0.48828125 6.73828125 0.48828125 6.73828125 0.3125 4.3125 C0.24675781 3.50425781 0.18101563 2.69601563 0.11328125 1.86328125 C0.07589844 1.24839844 0.03851563 0.63351563 0 0 Z " fill="#2D341D" transform="translate(115,49)"/>
<path d="M0 0 C1.32 0 2.64 0 4 0 C4 3.96 4 7.92 4 12 C3.67 12 3.34 12 3 12 C2.67 9.69 2.34 7.38 2 5 C1.01 5 0.02 5 -1 5 C-1 2 -1 2 0 0 Z " fill="#241305" transform="translate(77,112)"/>
<path d="M0 0 C2.88575819 0.39803561 3.82189513 0.79009069 5.75 3.0625 C6.1625 3.701875 6.575 4.34125 7 5 C6.34 5 5.68 5 5 5 C5 6.32 5 7.64 5 9 C4.34 9 3.68 9 3 9 C2.87625 8.195625 2.7525 7.39125 2.625 6.5625 C2.315625 5.2940625 2.315625 5.2940625 2 4 C1.34 3.67 0.68 3.34 0 3 C0 2.01 0 1.02 0 0 Z " fill="#CEAB78" transform="translate(105,84)"/>
<path d="M0 0 C0.66 0 1.32 0 2 0 C2.33 2.31 2.66 4.62 3 7 C1.35 7 -0.3 7 -2 7 C-1.125 1.125 -1.125 1.125 0 0 Z " fill="#39280A" transform="translate(151,93)"/>
<path d="M0 0 C0.99 0 1.98 0 3 0 C2.649375 0.5775 2.29875 1.155 1.9375 1.75 C0.85082593 4.35801776 1.06934867 5.39417629 2 8 C2.66 8 3.32 8 4 8 C3.34 9.32 2.68 10.64 2 12 C1.67 12 1.34 12 1 12 C1 10.02 1 8.04 1 6 C0.34 6 -0.32 6 -1 6 C-1.042721 4.33388095 -1.04063832 2.66617115 -1 1 C-0.67 0.67 -0.34 0.34 0 0 Z " fill="#C0A36E" transform="translate(77,92)"/>
<path d="M0 0 C0.33 0 0.66 0 1 0 C1 2.64 1 5.28 1 8 C1.66 8.33 2.32 8.66 3 9 C2.67 10.32 2.34 11.64 2 13 C-1.875 11.25 -1.875 11.25 -3 9 C-2.34 8.67 -1.68 8.34 -1 8 C-1.33 7.34 -1.66 6.68 -2 6 C-1.34 6 -0.68 6 0 6 C0 4.02 0 2.04 0 0 Z " fill="#866638" transform="translate(139,105)"/>
<path d="M0 0 C0.474375 0.495 0.94875 0.99 1.4375 1.5 C2.75923698 3.11542197 2.75923698 3.11542197 4 3 C4 4.98 4 6.96 4 9 C3.01 9 2.02 9 1 9 C1 7.68 1 6.36 1 5 C0.01 5 -0.98 5 -2 5 C-2 4.01 -2 3.02 -2 2 C-1.34 2 -0.68 2 0 2 C0 1.34 0 0.68 0 0 Z " fill="#DAAD6E" transform="translate(64,99)"/>
<path d="M0 0 C0.99 0 1.98 0 3 0 C3 0.99 3 1.98 3 3 C6.465 2.505 6.465 2.505 10 2 C10 2.66 10 3.32 10 4 C9.01 4.33 8.02 4.66 7 5 C6.34 5.66 5.68 6.32 5 7 C2.875 6.625 2.875 6.625 1 6 C1.33 4.35 1.66 2.7 2 1 C1.34 0.67 0.68 0.34 0 0 Z " fill="#574C29" transform="translate(146,97)"/>
<path d="M0 0 C2.7839183 1.39195915 2.97898997 3.15575779 4 6 C4.66 6 5.32 6 6 6 C6 6.99 6 7.98 6 9 C4 9 4 9 1.5 6.6875 C-1 4 -1 4 -3 1 C-2.01 0.67 -1.02 0.34 0 0 Z " fill="#AA9566" transform="translate(120,88)"/>
<path d="M0 0 C1.45903258 0.30921884 2.91720722 0.62248799 4.375 0.9375 C5.18710937 1.11152344 5.99921875 1.28554687 6.8359375 1.46484375 C9 2 9 2 11 3 C11 3.99 11 4.98 11 6 C6.95743617 4.77782954 3.50711041 3.37245704 0 1 C0 0.67 0 0.34 0 0 Z " fill="#7B6D60" transform="translate(54,135)"/>
<path d="M0 0 C1.32 0 2.64 0 4 0 C3.67 2.31 3.34 4.62 3 7 C3.66 7 4.32 7 5 7 C5 7.66 5 8.32 5 9 C3.68 9 2.36 9 1 9 C0.67 6.03 0.34 3.06 0 0 Z " fill="#C0A874" transform="translate(143,79)"/>
<path d="M0 0 C1.32 0 2.64 0 4 0 C4 1.98 4 3.96 4 6 C2.68 6 1.36 6 0 6 C0 4.02 0 2.04 0 0 Z " fill="#332513" transform="translate(104,116)"/>
<path d="M0 0 C2 3.75 2 3.75 2 6 C0.68 6 -0.64 6 -2 6 C-2.33 6.66 -2.66 7.32 -3 8 C-3.66 6.68 -4.32 5.36 -5 4 C-3.35 3.67 -1.7 3.34 0 3 C-0.66 3 -1.32 3 -2 3 C-2 2.34 -2 1.68 -2 1 C-1.34 0.67 -0.68 0.34 0 0 Z " fill="#CCAA75" transform="translate(66,91)"/>
<path d="M0 0 C1.32 0.33 2.64 0.66 4 1 C3.34 1.66 2.68 2.32 2 3 C1.53513282 6.12196336 1.53513282 6.12196336 1.375 9.625 C1.30023438 10.81351563 1.22546875 12.00203125 1.1484375 13.2265625 C1.09945312 14.14179688 1.05046875 15.05703125 1 16 C0.67 16 0.34 16 0 16 C0 10.72 0 5.44 0 0 Z " fill="#220D01" transform="translate(141,118)"/>
<path d="M0 0 C2.31 0.66 4.62 1.32 7 2 C5.68 3.32 4.36 4.64 3 6 C2.01 5.34 1.02 4.68 0 4 C0 2.68 0 1.36 0 0 Z " fill="#3E2B0C" transform="translate(132,111)"/>
<path d="M0 0 C0.66 0 1.32 0 2 0 C2 3.3 2 6.6 2 10 C1.01 10.495 1.01 10.495 0 11 C-0.19406478 9.35492782 -0.38007935 7.70890406 -0.5625 6.0625 C-0.66691406 5.14597656 -0.77132812 4.22945312 -0.87890625 3.28515625 C-0.91886719 2.53105469 -0.95882812 1.77695312 -1 1 C-0.67 0.67 -0.34 0.34 0 0 Z " fill="#364229" transform="translate(168,53)"/>
<path d="M0 0 C0.66 0 1.32 0 2 0 C2.33 3.63 2.66 7.26 3 11 C2.34 11 1.68 11 1 11 C-0.20272819 8.59454362 -0.10071472 7.05003047 -0.0625 4.375 C-0.05347656 3.55773438 -0.04445312 2.74046875 -0.03515625 1.8984375 C-0.02355469 1.27195313 -0.01195312 0.64546875 0 0 Z " fill="#292D17" transform="translate(179,42)"/>
<path d="M0 0 C0.66 0 1.32 0 2 0 C2.66 2.64 3.32 5.28 4 8 C3.01 7.34 2.02 6.68 1 6 C0.34 6.66 -0.32 7.32 -1 8 C-1 5.16032769 -0.59732819 2.76264289 0 0 Z " fill="#392B0E" transform="translate(47,87)"/>
<path d="M0 0 C4.05388445 2.70258963 4.50347441 5.51042324 6 10 C3.54896452 9.01958581 2.23241214 8.3486182 0.75 6.125 C0 4 0 4 0 0 Z " fill="#384025" transform="translate(152,76)"/>
<path d="M0 0 C2.4375 0.875 2.4375 0.875 4.4375 3.875 C3.7775 3.875 3.1175 3.875 2.4375 3.875 C2.1075 4.535 1.7775 5.195 1.4375 5.875 C0.7775 4.885 0.1175 3.895 -0.5625 2.875 C-3.14630177 2.62469023 -3.14630177 2.62469023 -5.5625 2.875 C-3.71830214 0.44842386 -3.12817806 -0.15259405 0 0 Z " fill="#9FAFA0" transform="translate(177.5625,26.125)"/>
<path d="M0 0 C1.32 0.33 2.64 0.66 4 1 C3.34 2.32 2.68 3.64 2 5 C0.68 4.67 -0.64 4.34 -2 4 C-1.34 2.68 -0.68 1.36 0 0 Z " fill="#C0A872" transform="translate(145,107)"/>
<path d="M0 0 C2.125 0.9375 2.125 0.9375 4 2 C3.34 2 2.68 2 2 2 C2 4.31 2 6.62 2 9 C0.68 8.67 -0.64 8.34 -2 8 C-1.34 6.35 -0.68 4.7 0 3 C-0.66 2.34 -1.32 1.68 -2 1 C-1.34 0.67 -0.68 0.34 0 0 Z " fill="#B08E5C" transform="translate(74,109)"/>
<path d="M0 0 C1.0625 1.8125 1.0625 1.8125 2 4 C1.02391783 6.92824652 -0.10786631 8.61426621 -2 11 C-1.85957123 9.35369672 -1.71250671 7.70795821 -1.5625 6.0625 C-1.48128906 5.14597656 -1.40007812 4.22945313 -1.31640625 3.28515625 C-1 1 -1 1 0 0 Z " fill="#372C0E" transform="translate(161,98)"/>
<path d="M0 0 C0.99 0.33 1.98 0.66 3 1 C3 3.31 3 5.62 3 8 C1.68 7.01 0.36 6.02 -1 5 C-0.67 3.35 -0.34 1.7 0 0 Z " fill="#DAAD6C" transform="translate(136,96)"/>
<path d="M0 0 C1.32 0 2.64 0 4 0 C3.67 0.66 3.34 1.32 3 2 C2.34 1.67 1.68 1.34 1 1 C2.32 2.65 3.64 4.3 5 6 C4.34 6 3.68 6 3 6 C2.67 6.66 2.34 7.32 2 8 C1.34 7.67 0.68 7.34 0 7 C0.33 6.34 0.66 5.68 1 5 C0.34 5 -0.32 5 -1 5 C-0.67 3.35 -0.34 1.7 0 0 Z " fill="#715C33" transform="translate(133,90)"/>
<path d="M0 0 C0.66 0 1.32 0 2 0 C2 0.99 2 1.98 2 3 C3.2065625 3.433125 3.2065625 3.433125 4.4375 3.875 C7 5 7 5 8 7 C4.62537285 6.45276317 2.91765 5.9451 0 4 C0 2.68 0 1.36 0 0 Z " fill="#333F29" transform="translate(47,36)"/>
<path d="M0 0 C0 0.33 0 0.66 0 1 C-1.65 1 -3.3 1 -5 1 C-5.33 1.99 -5.66 2.98 -6 4 C-7.32 3.67 -8.64 3.34 -10 3 C-10 2.34 -10 1.68 -10 1 C-6.42181037 -1.33958553 -4.07775191 -0.9267618 0 0 Z " fill="#3C250C" transform="translate(106,130)"/>
<path d="M0 0 C1.65 0 3.3 0 5 0 C5 1.32 5 2.64 5 4 C3.35 4 1.7 4 0 4 C0 2.68 0 1.36 0 0 Z " fill="#452E0F" transform="translate(91,118)"/>
<path d="M0 0 C1.32 0 2.64 0 4 0 C4 1.65 4 3.3 4 5 C2.68 5 1.36 5 0 5 C0 3.35 0 1.7 0 0 Z " fill="#3A2C18" transform="translate(104,100)"/>
<path d="M0 0 C1.32 0 2.64 0 4 0 C4 1.65 4 3.3 4 5 C2.68 5 1.36 5 0 5 C0 3.35 0 1.7 0 0 Z " fill="#433A21" transform="translate(104,88)"/>
<path d="M0 0 C0.99 0.33 1.98 0.66 3 1 C3 3.31 3 5.62 3 8 C2.34 7.01 1.68 6.02 1 5 C0.34 5 -0.32 5 -1 5 C-0.67 3.35 -0.34 1.7 0 0 Z " fill="#2F3720" transform="translate(89,59)"/>
<path d="M0 0 C2.31 0 4.62 0 7 0 C6.67 0.66 6.34 1.32 6 2 C5.34 2 4.68 2 4 2 C4 2.66 4 3.32 4 4 C3.34 4 2.68 4 2 4 C1.67 4.66 1.34 5.32 1 6 C0.67 4.02 0.34 2.04 0 0 Z " fill="#4C3B1E" transform="translate(75,108)"/>
<path d="M0 0 C1.17571451 3.67410785 1.07366746 7.16929183 1 11 C0.34 11 -0.32 11 -1 11 C-1.73080266 9.02253397 -2.39421747 7.01927511 -3 5 C-2.67 4.34 -2.34 3.68 -2 3 C-1.34 3 -0.68 3 0 3 C0 2.01 0 1.02 0 0 Z " fill="#A9824D" transform="translate(135,95)"/>
<path d="M0 0 C0.99 0.33 1.98 0.66 3 1 C0.03 3.475 0.03 3.475 -3 6 C-3.33 5.01 -3.66 4.02 -4 3 C-2.1875 1.4375 -2.1875 1.4375 0 0 Z " fill="#6C6057" transform="translate(163,126)"/>
<path d="M0 0 C0.66 0.33 1.32 0.66 2 1 C2 1.99 2 2.98 2 4 C0.02 4.99 0.02 4.99 -2 6 C-2 3 -2 3 0 0 Z " fill="#6E6254" transform="translate(168,120)"/>
<path d="M0 0 C0.99 0 1.98 0 3 0 C3 1.98 3 3.96 3 6 C2.01 6 1.02 6 0 6 C0 4.02 0 2.04 0 0 Z " fill="#4D371B" transform="translate(86,116)"/>
<path d="M0 0 C0.99 0.33 1.98 0.66 3 1 C-1.455 3.97 -1.455 3.97 -6 7 C-6.33 6.34 -6.66 5.68 -7 5 C-6.030625 4.360625 -5.06125 3.72125 -4.0625 3.0625 C-1.23963731 1.3034741 -1.23963731 1.3034741 0 0 Z " fill="#A18156" transform="translate(86,105)"/>
<path d="M0 0 C0 0.99 0 1.98 0 3 C-3 5 -3 5 -6 5 C-4.87312259 1.61936778 -3.78825335 0 0 0 Z " fill="#5B4C40" transform="translate(159,130)"/>
<path d="M0 0 C1.4540625 0.0309375 1.4540625 0.0309375 2.9375 0.0625 C2.9375 0.3925 2.9375 0.7225 2.9375 1.0625 C1.2875 1.0625 -0.3625 1.0625 -2.0625 1.0625 C-2.18625 1.701875 -2.31 2.34125 -2.4375 3 C-2.64375 3.680625 -2.85 4.36125 -3.0625 5.0625 C-4.0525 5.5575 -4.0525 5.5575 -5.0625 6.0625 C-3.98897059 0.08140756 -3.98897059 0.08140756 0 0 Z " fill="#7D623E" transform="translate(73.0625,117.9375)"/>
<path d="M0 0 C0.66 0 1.32 0 2 0 C3 3 3 3 2 6 C-0.0625 6.6875 -0.0625 6.6875 -2 7 C-1.42415568 4.61435923 -0.77772405 2.33317216 0 0 Z " fill="#DAB57A" transform="translate(71,112)"/>
<path d="M0 0 C1.485 0.99 1.485 0.99 3 2 C3 2.66 3 3.32 3 4 C3.66 4 4.32 4 5 4 C5.33 5.32 5.66 6.64 6 8 C2.57701423 6.85900474 1.85241234 5.99914379 0 3 C0 2.01 0 1.02 0 0 Z " fill="#333E27" transform="translate(46,46)"/>
<path d="M0 0 C0.33 0 0.66 0 1 0 C1 1.98 1 3.96 1 6 C0.01 6.33 -0.98 6.66 -2 7 C-2.33 5.68 -2.66 4.36 -3 3 C-2.34 3 -1.68 3 -1 3 C-0.67 2.01 -0.34 1.02 0 0 Z " fill="#303921" transform="translate(104,24)"/>
<path d="M0 0 C0.33 0 0.66 0 1 0 C1 4.95 1 9.9 1 15 C0.67 15 0.34 15 0 15 C0 10.05 0 5.1 0 0 Z " fill="#FDFDFD" transform="translate(4,45)"/>
<path d="M0 0 C3.96 0 7.92 0 12 0 C12 0.33 12 0.66 12 1 C8.04 1 4.08 1 0 1 C0 0.67 0 0.34 0 0 Z " fill="#FEFEFE" transform="translate(98,151)"/>
<path d="M0 0 C3.3 0 6.6 0 10 0 C10 0.33 10 0.66 10 1 C6.7 1 3.4 1 0 1 C0 0.67 0 0.34 0 0 Z " fill="#FDFDFC" transform="translate(110,150)"/>
<path d="M0 0 C3.3 0 6.6 0 10 0 C10 0.33 10 0.66 10 1 C6.7 1 3.4 1 0 1 C0 0.67 0 0.34 0 0 Z " fill="#FDFDFD" transform="translate(88,150)"/>
<path d="M0 0 C0.33 0 0.66 0 1 0 C1.33 2.97 1.66 5.94 2 9 C-0.29013653 5.5647952 -0.17842973 4.014669 0 0 Z " fill="#FDFDFD" transform="translate(6,66)"/>
<path d="M0 0 C2 3 2 3 1.625 5.1875 C1.315625 6.0846875 1.315625 6.0846875 1 7 C0.67 4.69 0.34 2.38 0 0 Z " fill="#FEFEFE" transform="translate(196,37)"/>
<path d="M0 0 C0.99 1.485 0.99 1.485 2 3 C1.67 3.99 1.34 4.98 1 6 C0.67 4.02 0.34 2.04 0 0 Z " fill="#FEFEFE" transform="translate(59,29)"/>
<path d="M0 0 C2.31 0 4.62 0 7 0 C7 0.33 7 0.66 7 1 C4.69 1 2.38 1 0 1 C0 0.67 0 0.34 0 0 Z " fill="#FDFEFD" transform="translate(137,18)"/>
<path d="M0 0 C0 0.99 0 1.98 0 3 C-0.99 3 -1.98 3 -3 3 C-2.01 2.01 -1.02 1.02 0 0 Z " fill="#FDFDFD" transform="translate(89,18)"/>
<path d="M0 0 C0.66 0.33 1.32 0.66 2 1 C0.02 1.99 0.02 1.99 -2 3 C-1.34 2.01 -0.68 1.02 0 0 Z " fill="#FDFDFD" transform="translate(166,127)"/>
<path d="M0 0 C0.33 0 0.66 0 1 0 C1 1.98 1 3.96 1 6 C0.67 6 0.34 6 0 6 C0 4.02 0 2.04 0 0 Z " fill="#FCFCFC" transform="translate(202,60)"/>
<path d="M0 0 C0.33 0 0.66 0 1 0 C1 1.98 1 3.96 1 6 C0.67 6 0.34 6 0 6 C0 4.02 0 2.04 0 0 Z " fill="#FEFEFE" transform="translate(203,53)"/>
<path d="M0 0 C1.98 0 3.96 0 6 0 C6 0.33 6 0.66 6 1 C4.02 1 2.04 1 0 1 C0 0.67 0 0.34 0 0 Z " fill="#FEFEFE" transform="translate(34,11)"/>
<path d="M0 0 C1.65 0 3.3 0 5 0 C5 0.33 5 0.66 5 1 C3.35 1 1.7 1 0 1 C0 0.67 0 0.34 0 0 Z " fill="#FDFDFD" transform="translate(83,149)"/>
<path d="M0 0 C1.65 0 3.3 0 5 0 C5 0.33 5 0.66 5 1 C3.35 1 1.7 1 0 1 C0 0.67 0 0.34 0 0 Z " fill="#FDFDFD" transform="translate(124,148)"/>
<path d="M0 0 C0.33 0 0.66 0 1 0 C1 1.65 1 3.3 1 5 C0.67 5 0.34 5 0 5 C0 3.35 0 1.7 0 0 Z " fill="#FDFDFD" transform="translate(201,66)"/>
<path d="M0 0 C0.33 0 0.66 0 1 0 C1 1.65 1 3.3 1 5 C0.67 5 0.34 5 0 5 C0 3.35 0 1.7 0 0 Z " fill="#FCFCFB" transform="translate(5,60)"/>
<path d="M0 0 C1.65 0 3.3 0 5 0 C5 0.33 5 0.66 5 1 C3.35 1 1.7 1 0 1 C0 0.67 0 0.34 0 0 Z " fill="#FDFEFD" transform="translate(186,31)"/>
<path d="M0 0 C4 1 4 1 4 1 Z " fill="#FDFDFD" transform="translate(120,149)"/>
<path d="M0 0 C4 1 4 1 4 1 Z " fill="#FDFDFD" transform="translate(79,148)"/>
<path d="M0 0 C4 1 4 1 4 1 Z " fill="#FDFDFD" transform="translate(72,146)"/>
<path d="M0 0 C0.99 0.495 0.99 0.495 2 1 C1.67 1.66 1.34 2.32 1 3 C0.67 2.01 0.34 1.02 0 0 Z " fill="#FDFDFD" transform="translate(32,119)"/>
<path d="M0 0 C0 3 0 3 0 3 Z " fill="#FDFDFD" transform="translate(180,113)"/>
<path d="M0 0 C1 4 1 4 1 4 Z " fill="#FDFDFD" transform="translate(199,75)"/>
<path d="M0 0 C1 4 1 4 1 4 Z " fill="#FDFDFD" transform="translate(8,75)"/>
<path d="M0 0 C1 4 1 4 1 4 Z " fill="#FDFDFD" transform="translate(200,71)"/>
<path d="M0 0 C0.99 0 1.98 0 3 0 C2.67 0.66 2.34 1.32 2 2 C1.34 1.34 0.68 0.68 0 0 Z " fill="#FDFDFD" transform="translate(161,37)"/>
<path d="M0 0 C4 1 4 1 4 1 Z " fill="#FDFEFD" transform="translate(52,24)"/>
<path d="M0 0 C0.66 0.33 1.32 0.66 2 1 C1.01 1 0.02 1 -1 1 C-0.67 0.67 -0.34 0.34 0 0 Z " fill="#FDFDFD" transform="translate(25,18)"/>
<path d="M0 0 C4 1 4 1 4 1 Z " fill="#FEFEFE" transform="translate(124,5)"/>
<path d="M0 0 C0.99 0.33 1.98 0.66 3 1 C2.01 1 1.02 1 0 1 C0 0.67 0 0.34 0 0 Z " fill="#FEFEFE" transform="translate(119,1)"/>
<path d="M0 0 C0.66 0 1.32 0 2 0 C2 0.66 2 1.32 2 2 C1.34 2 0.68 2 0 2 C0 1.34 0 0.68 0 0 Z " fill="#FDFCFC" transform="translate(46,0)"/>
<path d="M0 0 C3 1 3 1 3 1 Z " fill="#FDFDFD" transform="translate(129,147)"/>
<path d="M0 0 C3 1 3 1 3 1 Z " fill="#FDFDFC" transform="translate(76,147)"/>
<path d="M0 0 C3 1 3 1 3 1 Z " fill="#FDFDFD" transform="translate(132,146)"/>
<path d="M0 0 C3 1 3 1 3 1 Z " fill="#FDFDFD" transform="translate(135,145)"/>
<path d="M0 0 C3 1 3 1 3 1 Z " fill="#FDFDFD" transform="translate(67,144)"/>
<path d="M0 0 C3 1 3 1 3 1 Z " fill="#FDFDFD" transform="translate(142,142)"/>
<path d="" fill="#FEFEFE" transform="translate(0,0)"/>
<path d="" fill="#FDFEFD" transform="translate(0,0)"/>
<path d="" fill="#FEFEFD" transform="translate(0,0)"/>
<path d="" fill="#FDFDFD" transform="translate(0,0)"/>
<path d="" fill="#FDFDFD" transform="translate(0,0)"/>
<path d="" fill="#FEFEFE" transform="translate(0,0)"/>
<path d="M0 0 C3 1 3 1 3 1 Z " fill="#FEFEFE" transform="translate(175,24)"/>
<path d="M0 0 C0.66 0.66 1.32 1.32 2 2 C1.34 2 0.68 2 0 2 C0 1.34 0 0.68 0 0 Z " fill="#FEFEFE" transform="translate(49,21)"/>
<path d="" fill="#FDFDFD" transform="translate(0,0)"/>
<path d="M0 0 C3 1 3 1 3 1 Z " fill="#FDFDFD" transform="translate(153,3)"/>
<path d="M0 0 C0.33 0.66 0.66 1.32 1 2 C0.34 1.67 -0.32 1.34 -1 1 C-0.67 0.67 -0.34 0.34 0 0 Z " fill="#FDFCFC" transform="translate(140,2)"/>
<path d="M0 0 C2 1 2 1 2 1 Z " fill="#FCFCFC" transform="translate(70,145)"/>
<path d="M0 0 C2 1 2 1 2 1 Z " fill="#FDFDFC" transform="translate(138,144)"/>
<path d="M0 0 C2 1 2 1 2 1 Z " fill="#FDFDFD" transform="translate(140,143)"/>
<path d="M0 0 C2 1 2 1 2 1 Z " fill="#FDFDFD" transform="translate(63,142)"/>
<path d="M0 0 C2 1 2 1 2 1 Z " fill="#FDFDFC" transform="translate(61,141)"/>
<path d="M0 0 C2 1 2 1 2 1 Z " fill="#FDFDFD" transform="translate(147,140)"/>
<path d="M0 0 C2 1 2 1 2 1 Z " fill="#FDFDFD" transform="translate(59,140)"/>
<path d="M0 0 C2 1 2 1 2 1 Z " fill="#FDFDFD" transform="translate(57,139)"/>
<path d="M0 0 C2 1 2 1 2 1 Z " fill="#FDFDFD" transform="translate(151,138)"/>
<path d="M0 0 C2 1 2 1 2 1 Z " fill="#FDFDFC" transform="translate(55,138)"/>
<path d="M0 0 C2 1 2 1 2 1 Z " fill="#FDFDFD" transform="translate(154,136)"/>
<path d="M0 0 C2 1 2 1 2 1 Z " fill="#FDFDFD" transform="translate(50,135)"/>
<path d="M0 0 C2 1 2 1 2 1 Z " fill="#FDFDFD" transform="translate(157,134)"/>
<path d="M0 0 C2 1 2 1 2 1 Z " fill="#FDFDFD" transform="translate(47,133)"/>
<path d="M0 0 C2 1 2 1 2 1 Z " fill="#FEFEFE" transform="translate(160,132)"/>
<path d="M0 0 C2 1 2 1 2 1 Z " fill="#FDFDFD" transform="translate(43,130)"/>
<path d="" fill="#FEFEFE" transform="translate(0,0)"/>
<path d="" fill="#FEFEFE" transform="translate(0,0)"/>
<path d="" fill="#FDFDFD" transform="translate(0,0)"/>
<path d="" fill="#FEFEFE" transform="translate(0,0)"/>
<path d="" fill="#FDFDFD" transform="translate(0,0)"/>
<path d="" fill="#FEFEFE" transform="translate(0,0)"/>
<path d="" fill="#FDFDFD" transform="translate(0,0)"/>
<path d="" fill="#FEFEFE" transform="translate(0,0)"/>
<path d="" fill="#FEFEFE" transform="translate(0,0)"/>
<path d="" fill="#FDFDFD" transform="translate(0,0)"/>
<path d="" fill="#FDFDFD" transform="translate(0,0)"/>
<path d="" fill="#FDFDFD" transform="translate(0,0)"/>
<path d="" fill="#FDFDFD" transform="translate(0,0)"/>
<path d="" fill="#FDFDFD" transform="translate(0,0)"/>
<path d="" fill="#FEFEFE" transform="translate(0,0)"/>
<path d="" fill="#FEFDFD" transform="translate(0,0)"/>
<path d="" fill="#FDFDFD" transform="translate(0,0)"/>
<path d="" fill="#FEFEFE" transform="translate(0,0)"/>
<path d="" fill="#FDFDFD" transform="translate(0,0)"/>
<path d="" fill="#FDFDFD" transform="translate(0,0)"/>
<path d="" fill="#FDFDFD" transform="translate(0,0)"/>
<path d="" fill="#FEFEFE" transform="translate(0,0)"/>
<path d="" fill="#FDFDFD" transform="translate(0,0)"/>
<path d="" fill="#FCFCFC" transform="translate(0,0)"/>
<path d="M0 0 C2 1 2 1 2 1 Z " fill="#FCFCFC" transform="translate(63,39)"/>
<path d="" fill="#FDFEFD" transform="translate(0,0)"/>
<path d="" fill="#FDFDFD" transform="translate(0,0)"/>
<path d="" fill="#FDFDFC" transform="translate(0,0)"/>
<path d="" fill="#FDFDFD" transform="translate(0,0)"/>
<path d="" fill="#FDFDFD" transform="translate(0,0)"/>
<path d="M0 0 C2 1 2 1 2 1 Z " fill="#FDFDFD" transform="translate(158,35)"/>
<path d="" fill="#FDFDFD" transform="translate(0,0)"/>
<path d="" fill="#FDFDFD" transform="translate(0,0)"/>
<path d="" fill="#FEFEFE" transform="translate(0,0)"/>
<path d="M0 0 C2 1 2 1 2 1 Z " fill="#FEFEFE" transform="translate(191,32)"/>
<path d="" fill="#FDFDFD" transform="translate(0,0)"/>
<path d="M0 0 C2 1 2 1 2 1 Z " fill="#FDFDFD" transform="translate(72,30)"/>
<path d="" fill="#FEFEFE" transform="translate(0,0)"/>
<path d="" fill="#FDFDFD" transform="translate(0,0)"/>
<path d="M0 0 C2 1 2 1 2 1 Z " fill="#FDFDFD" transform="translate(74,29)"/>
<path d="M0 0 C2 1 2 1 2 1 Z " fill="#FEFEFE" transform="translate(182,28)"/>
<path d="M0 0 C2 1 2 1 2 1 Z " fill="#FDFDFD" transform="translate(76,28)"/>
<path d="" fill="#FEFEFE" transform="translate(0,0)"/>
<path d="" fill="#FDFEFD" transform="translate(0,0)"/>
<path d="M0 0 C2 1 2 1 2 1 Z " fill="#FDFDFD" transform="translate(78,27)"/>
<path d="M0 0 C2 1 2 1 2 1 Z " fill="#FDFEFD" transform="translate(178,25)"/>
<path d="M0 0 C2 1 2 1 2 1 Z " fill="#FEFEFE" transform="translate(173,25)"/>
<path d="" fill="#FDFEFD" transform="translate(0,0)"/>
<path d="M0 0 C2 1 2 1 2 1 Z " fill="#FDFDFD" transform="translate(84,22)"/>
<path d="M0 0 C2 1 2 1 2 1 Z " fill="#FDFDFD" transform="translate(22,20)"/>
<path d="M0 0 C2 1 2 1 2 1 Z " fill="#FEFEFE" transform="translate(144,19)"/>
<path d="" fill="#FEFEFE" transform="translate(0,0)"/>
<path d="" fill="#FDFDFD" transform="translate(0,0)"/>
<path d="" fill="#FEFEFE" transform="translate(0,0)"/>
<path d="M0 0 C2 1 2 1 2 1 Z " fill="#FDFDFD" transform="translate(40,12)"/>
<path d="M0 0 C2 1 2 1 2 1 Z " fill="#FEFEFE" transform="translate(32,12)"/>
<path d="M0 0 C2 1 2 1 2 1 Z " fill="#FEFEFE" transform="translate(95,11)"/>
<path d="" fill="#FDFEFD" transform="translate(0,0)"/>
<path d="" fill="#FDFDFD" transform="translate(0,0)"/>
<path d="M0 0 C2 1 2 1 2 1 Z " fill="#FDFDFD" transform="translate(128,6)"/>
<path d="" fill="#FCFCFC" transform="translate(0,0)"/>
<path d="" fill="#FCFCFC" transform="translate(0,0)"/>
<path d="" fill="#FCFCFC" transform="translate(0,0)"/>
<path d="" fill="#FDFCFC" transform="translate(0,0)"/>
<path d="" fill="#FCFCFC" transform="translate(0,0)"/>
<path d="" fill="#FDFDFD" transform="translate(0,0)"/>
<path d="" fill="#FCFCFC" transform="translate(0,0)"/>
<path d="" fill="#FCFCFC" transform="translate(0,0)"/>
<path d="" fill="#FCFCFC" transform="translate(0,0)"/>
<path d="" fill="#FEFDFD" transform="translate(0,0)"/>
<path d="" fill="#FDFDFD" transform="translate(0,0)"/>
<path d="" fill="#FBFBFB" transform="translate(0,0)"/>
<path d="" fill="#FCFCFC" transform="translate(0,0)"/>
<path d="" fill="#FEFDFD" transform="translate(0,0)"/>
<path d="" fill="#FEFEFD" transform="translate(0,0)"/>
<path d="" fill="#FDFCFC" transform="translate(0,0)"/>
<path d="" fill="#FEFEFE" transform="translate(0,0)"/>
<path d="" fill="#FEFDFD" transform="translate(0,0)"/>
<path d="" fill="#FDFDFD" transform="translate(0,0)"/>
<path d="" fill="#FDFCFC" transform="translate(0,0)"/>
<path d="" fill="#FDFDFD" transform="translate(0,0)"/>
<path d="" fill="#FEFDFD" transform="translate(0,0)"/>
<path d="" fill="#FDFDFD" transform="translate(0,0)"/>
<path d="" fill="#FEFEFE" transform="translate(0,0)"/>
<path d="" fill="#FCFCFC" transform="translate(0,0)"/>
<path d="" fill="#FCFCFC" transform="translate(0,0)"/>
<path d="" fill="#FDFDFD" transform="translate(0,0)"/>
<path d="" fill="#FEFDFD" transform="translate(0,0)"/>
<path d="" fill="#FDFDFD" transform="translate(0,0)"/>
<path d="" fill="#FDFDFD" transform="translate(0,0)"/>
<path d="" fill="#FEFEFE" transform="translate(0,0)"/>
<path d="" fill="#FDFDFD" transform="translate(0,0)"/>
<path d="" fill="#FEFEFE" transform="translate(0,0)"/>
<path d="" fill="#FEFEFE" transform="translate(0,0)"/>
<path d="" fill="#FEFDFD" transform="translate(0,0)"/>
<path d="" fill="#FDFDFD" transform="translate(0,0)"/>
<path d="" fill="#FDFDFD" transform="translate(0,0)"/>
<path d="" fill="#FDFDFD" transform="translate(0,0)"/>
<path d="" fill="#FEFEFE" transform="translate(0,0)"/>
<path d="" fill="#FEFEFE" transform="translate(0,0)"/>
<path d="" fill="#FEFEFE" transform="translate(0,0)"/>
<path d="" fill="#FDFDFD" transform="translate(0,0)"/>
<path d="" fill="#FEFEFE" transform="translate(0,0)"/>
<path d="" fill="#FDFDFD" transform="translate(0,0)"/>
<path d="" fill="#FEFEFE" transform="translate(0,0)"/>
<path d="" fill="#FDFEFD" transform="translate(0,0)"/>
<path d="" fill="#FDFDFD" transform="translate(0,0)"/>
<path d="" fill="#FEFEFE" transform="translate(0,0)"/>
<path d="" fill="#FDFDFD" transform="translate(0,0)"/>
<path d="" fill="#FDFDFD" transform="translate(0,0)"/>
<path d="" fill="#FDFDFD" transform="translate(0,0)"/>
<path d="" fill="#FDFDFD" transform="translate(0,0)"/>
<path d="" fill="#FCFCFC" transform="translate(0,0)"/>
<path d="" fill="#FCFCFC" transform="translate(0,0)"/>
<path d="" fill="#FDFDFD" transform="translate(0,0)"/>
<path d="" fill="#FEFEFE" transform="translate(0,0)"/>
<path d="" fill="#FEFEFE" transform="translate(0,0)"/>
<path d="" fill="#FDFEFD" transform="translate(0,0)"/>
<path d="" fill="#FEFEFE" transform="translate(0,0)"/>
<path d="" fill="#FDFDFD" transform="translate(0,0)"/>
<path d="" fill="#FDFDFD" transform="translate(0,0)"/>
<path d="" fill="#FDFDFD" transform="translate(0,0)"/>
<path d="" fill="#FEFEFE" transform="translate(0,0)"/>
<path d="" fill="#FDFDFD" transform="translate(0,0)"/>
<path d="" fill="#FEFEFE" transform="translate(0,0)"/>
<path d="" fill="#FFFEFE" transform="translate(0,0)"/>
<path d="" fill="#FDFDFD" transform="translate(0,0)"/>
<path d="" fill="#FFFFFE" transform="translate(0,0)"/>
<path d="" fill="#FCFCFC" transform="translate(0,0)"/>
<path d="" fill="#FEFEFE" transform="translate(0,0)"/>
<path d="" fill="#FDFDFD" transform="translate(0,0)"/>
<path d="" fill="#FEFFFE" transform="translate(0,0)"/>
<path d="" fill="#FEFEFE" transform="translate(0,0)"/>
<path d="" fill="#FEFEFE" transform="translate(0,0)"/>
<path d="" fill="#FDFEFD" transform="translate(0,0)"/>
<path d="" fill="#FEFEFE" transform="translate(0,0)"/>
<path d="" fill="#FEFEFE" transform="translate(0,0)"/>
<path d="" fill="#FEFEFE" transform="translate(0,0)"/>
<path d="" fill="#FDFDFD" transform="translate(0,0)"/>
<path d="" fill="#FEFEFE" transform="translate(0,0)"/>
<path d="" fill="#FDFEFD" transform="translate(0,0)"/>
<path d="" fill="#FDFDFD" transform="translate(0,0)"/>
<path d="" fill="#FEFEFE" transform="translate(0,0)"/>
<path d="" fill="#FEFEFE" transform="translate(0,0)"/>
<path d="" fill="#FEFEFE" transform="translate(0,0)"/>
<path d="" fill="#FEFEFE" transform="translate(0,0)"/>
<path d="" fill="#FEFEFE" transform="translate(0,0)"/>
<path d="" fill="#FEFEFE" transform="translate(0,0)"/>
<path d="" fill="#FEFEFE" transform="translate(0,0)"/>
<path d="" fill="#FEFEFE" transform="translate(0,0)"/>
<path d="" fill="#FEFEFE" transform="translate(0,0)"/>
<path d="" fill="#FEFEFE" transform="translate(0,0)"/>
<path d="" fill="#FEFFFE" transform="translate(0,0)"/>
<path d="" fill="#FEFEFE" transform="translate(0,0)"/>
<path d="" fill="#FEFEFE" transform="translate(0,0)"/>
<path d="" fill="#FDFEFD" transform="translate(0,0)"/>
<path d="" fill="#FCFCFC" transform="translate(0,0)"/>
<path d="" fill="#FCFDFC" transform="translate(0,0)"/>
<path d="" fill="#FDFEFE" transform="translate(0,0)"/>
<path d="" fill="#FDFDFD" transform="translate(0,0)"/>
<path d="" fill="#FEFEFE" transform="translate(0,0)"/>
<path d="" fill="#FEFEFE" transform="translate(0,0)"/>
<path d="" fill="#FEFEFE" transform="translate(0,0)"/>
<path d="" fill="#FEFEFE" transform="translate(0,0)"/>
<path d="" fill="#FEFEFE" transform="translate(0,0)"/>
<path d="" fill="#FDFDFD" transform="translate(0,0)"/>
<path d="" fill="#FEFEFE" transform="translate(0,0)"/>
<path d="" fill="#FEFEFE" transform="translate(0,0)"/>
<path d="" fill="#FDFDFD" transform="translate(0,0)"/>
<path d="" fill="#FEFEFE" transform="translate(0,0)"/>
<path d="" fill="#FDFDFD" transform="translate(0,0)"/>
<path d="" fill="#FDFDFC" transform="translate(0,0)"/>
<path d="" fill="#FFFFFF" transform="translate(0,0)"/>
<path d="" fill="#FDFDFD" transform="translate(0,0)"/>
<path d="" fill="#FFFFFF" transform="translate(0,0)"/>
<path d="" fill="#FDFDFD" transform="translate(0,0)"/>
<path d="" fill="#FEFEFE" transform="translate(0,0)"/>
<path d="" fill="#FDFDFD" transform="translate(0,0)"/>
<path d="" fill="#FEFEFE" transform="translate(0,0)"/>
<path d="" fill="#FEFEFE" transform="translate(0,0)"/>
<path d="" fill="#FEFEFE" transform="translate(0,0)"/>
<path d="" fill="#FDFDFD" transform="translate(0,0)"/>
<path d="" fill="#FDFDFD" transform="translate(0,0)"/>
<path d="" fill="#FEFEFE" transform="translate(0,0)"/>
</svg>
